<?xml version="1.0" encoding="UTF-8" standalone="no"?>
<!-- Created with Inkscape (http://www.inkscape.org/) -->

<svg
   version="1.1"
   id="svg2"
   width="6666.6665"
   height="4666.6665"
   viewBox="0 0 6666.6665 4666.6665"
   sodipodi:docname="vecteezy_man-pushes-credit-score-arrow-gauge-speedometer-indicator_6208001.eps"
   xmlns:inkscape="http://www.inkscape.org/namespaces/inkscape"
   xmlns:sodipodi="http://sodipodi.sourceforge.net/DTD/sodipodi-0.dtd"
   xmlns="http://www.w3.org/2000/svg"
   xmlns:svg="http://www.w3.org/2000/svg">
  <defs
     id="defs6" />
  <sodipodi:namedview
     id="namedview4"
     pagecolor="#ffffff"
     bordercolor="#000000"
     borderopacity="0.25"
     inkscape:showpageshadow="2"
     inkscape:pageopacity="0.0"
     inkscape:pagecheckerboard="0"
     inkscape:deskcolor="#d1d1d1" />
  <g
     id="g8"
     inkscape:groupmode="layer"
     inkscape:label="ink_ext_XXXXXX"
     transform="matrix(1.3333333,0,0,-1.3333333,0,4666.6667)">
    <g
       id="g10"
       transform="scale(0.1)">
      <path
         d="M 50000,0 H 0 V 35000 H 50000 V 0"
         style="fill:#ffffff;fill-opacity:0;fill-rule:nonzero;stroke:none"
         id="path12" />
      <path
         d="m 46500,7098.2 c 0,-789 -9625.9,-1428.7 -21500,-1428.7 -11874.1,0 -21500,639.7 -21500,1428.7 0,789.1 9625.9,1428.7 21500,1428.7 11874.1,0 21500,-639.6 21500,-1428.7"
         style="fill:#f4f1fe;fill-opacity:1;fill-rule:nonzero;stroke:none"
         id="path14" /> <!-- oval floor-->
      <path
         d="m 24660.9,27920.3 c -1690.5,0 -3319.5,-262.9 -4848.6,-750 L 24660.9,11961.5 28717.6,27400 c -1295.3,339.5 -2654.9,520.3 -4056.7,520.3"
         style="fill:#ffc107;fill-opacity:1;fill-rule:nonzero;stroke:none"
         id="path16" /> <!-- light orange pie chart (third from left) -->
      <path
         d="M 8702.13,11961.5 H 24660.9 l -12549,9860.3 C 9976.2,19107.5 8702.13,15683.3 8702.13,11961.5"
         style="fill:#ff1744;fill-opacity:1;fill-rule:nonzero;stroke:none"
         id="path18" /> <!-- red pie chart (first from left) -->
      <path
         d="m 24660.9,11961.5 h 15958.8 c 0,3721.8 -1274,7146 -3409.8,9860.3 l -12549,-9860.3"
         style="fill:#4bc302;fill-opacity:1;fill-rule:nonzero;stroke:none"
         id="path20" /> <!-- green pie chart (fifth from left) -->
      <path
         d="m 12111.9,21821.8 12549,-9860.3 -4848.6,15208.8 c -3076.7,-980 -5748.4,-2867.7 -7700.4,-5348.5"
         style="fill:#ffa000;fill-opacity:1;fill-rule:nonzero;stroke:none"
         id="path22" /> <!-- dark orange pie chart (second from left)-->
      <path
         d="m 28717.6,27400 -4056.7,-15438.5 12549,9860.3 c -2117.6,2691.3 -5082.3,4684.7 -8492.3,5578.2"
         style="fill:#ffda00;fill-opacity:1;fill-rule:nonzero;stroke:none"
         id="path24" /> <!-- yellow pie chart (fourth from left) -->
      <path
         d="m 24645.3,15933.6 c -2177,0 -3941.8,-1764.8 -3941.8,-3941.8 h 7883.6 c 0,2177 -1764.8,3941.8 -3941.8,3941.8"
         style="fill:#e9e3fc;fill-opacity:1;fill-rule:nonzero;stroke:none"
         id="path26" /> <!-- Light gray inner circle-->
      <path
         d="m 24804.6,23667.5 c 52.8,273.7 37,596.1 33,803.5 -1.1,58.2 -5.7,246.9 -10.6,274.7 -5.1,28.9 -16.7,43.4 -31,46.9 -0.9,37.1 -1.8,72.1 -2.4,104.3 -1.1,58.1 -5.6,246.9 -10.6,274.7 -15.1,85.7 -87.6,44.8 -114.8,-33.7 -53.9,-155.3 -88.7,-432.5 -300.5,-858 -21.5,50.7 -49.9,90.5 -84.9,108.6 -929.5,-220.3 -2028.9,-444.2 -2941.1,-621.1 13.8,56.5 24.5,114.1 31.2,171.4 h 0.1 c 0.7,5.5 1.1,11 1.7,16.5 0.7,6.1 1.3,12.3 1.9,18.4 1.2,14 2.3,27.9 3,41.8 0.1,6.7 0.1,13.4 0.1,20.2 18.7,-0.3 37.7,2 56.7,7.9 71.3,22 111.3,107.4 94.3,175.9 -3.6,14.3 3.8,29 18.3,34.7 15.9,6.4 30.4,15.8 42.9,29.8 40.9,46 61.6,108.8 59.8,167.3 -2,64.7 -27.3,128.4 -91,160.9 -36.4,18.6 -66.4,21.4 -106.6,18.5 -15.2,-1.1 -33.5,3.1 -38.8,16.5 -2,5.1 -1.8,10.8 -1.5,16.2 4.3,86.2 1.6,176.9 -87.9,225.4 -32.4,17.2 -68.4,23.3 -105,16.8 -36.6,-6.5 -64.6,-31.4 -103.3,-33.4 -52.3,-2.7 -70.4,32.2 -101.7,62.7 -34.4,33.5 -81.5,48 -130.6,45.6 -48.6,-2.3 -88.9,-17.2 -119.3,-52.9 -13.1,-15.3 -21.9,-29.9 -31.3,-47.4 -6.3,-11.7 -16.7,-23.4 -30.7,-24.2 -13,-0.7 -24.2,8.1 -32.9,17.2 -18.5,19.3 -39.6,31.7 -66.9,37.7 -19,4.2 -45.9,5.2 -72.7,3.6 l 820.9,-2574.9 c 919.6,182.6 1967.7,525.6 3168.2,1098.7 8.5,12.3 15.5,27.5 21.3,44.7 114.9,-2.2 237.8,55.1 262.7,184.5"
         style="fill:#ffa000;fill-opacity:1;fill-rule:nonzero;stroke:none"
         id="path28" />
      <path
         d="m 18417,18470.2 c 18.9,7.1 33,22.2 38.8,40.4 457.5,1454.4 1210.9,2756.7 1718.4,3598.1 v 0 c 15.9,26.4 31.6,52.3 47,77.8 354,24.3 730.4,73.5 1131.2,153.1 l -820.9,2574.9 c -28.3,-1.7 -56.5,-6.3 -75.6,-13.2 -61.8,-22.4 -113,-80.1 -106.8,-144.4 0.7,-7.1 2,-14.3 0.1,-21.2 -2.3,-8.7 -10,-15.9 -19.3,-18.2 -16.1,-3.9 -38.2,10.9 -54.4,14.1 -22,4.4 -44.8,4.4 -67,1.3 -43.1,-6 -86.1,-24.2 -117.2,-53.2 -18.4,-17.2 -30.6,-41.1 -37.9,-69.7 -18.7,-41.7 -22.9,-92.9 -11.3,-136.5 4.5,-16.9 -8,-32.9 -26.4,-35.4 -41.5,-5.7 -85.7,-41.9 -103.3,-69.5 -32.4,-51 -29.5,-129.5 -6.1,-183.4 13.3,-30.6 29,-61.5 52.2,-85.9 -11.1,-24.7 -17.8,-52.4 -18.4,-81.9 -1.4,-65.7 26.6,-124.7 70.5,-161.7 -75.8,-157 -212.5,-268.1 -328.9,-333.1 -47.5,15.8 -97.5,27.3 -150.1,33.9 -7.2,0.9 -14.7,0.2 -21.5,-2.2 -116.4,-40.5 -219.1,-124.4 -274.2,-226.6 0,0 0.1,0 0.1,-0.1 -1291.4,-234.4 -2651.2,-2039.5 -3464.7,-3768.8 0.9,-1.3 1.9,-2.7 2.8,-4 -1,-1.8 -2.1,-3.8 -3.1,-5.6 -0.1,-0.3 -0.3,-0.6 -0.4,-0.9 -1.7,-3.1 -3.4,-6.3 -5.2,-9.6 -0.2,-0.5 -0.5,-1 -0.8,-1.5 -1.7,-3.2 -3.4,-6.4 -5.1,-9.6 -0.3,-0.6 -0.6,-1.1 -0.9,-1.7 -1.7,-3.3 -3.5,-6.7 -5.3,-10.1 -0.2,-0.5 -0.4,-0.9 -0.7,-1.4 -1.8,-3.5 -3.7,-7 -5.6,-10.7 -0.1,-0.3 -0.3,-0.7 -0.5,-1.1 -2,-3.8 -3.9,-7.6 -5.9,-11.5 -0.1,0 -0.1,-0.1 -0.1,-0.2 -32.4,-63.3 -69.4,-141.3 -105.5,-229.2 -24.8,-46 -50.6,-95.1 -77.5,-147.2 l 4588,-3605.1 c 32.2,51.5 63.7,102.5 94.5,152.6 677,1103.3 -1091.3,1882.9 -2192.3,2646.7 -12.8,8.9 -25.5,17.8 -38.1,26.7 -0.7,0.4 -1.4,0.9 -2,1.4 -38.1,26.8 -75.3,53.6 -111.5,80.4 -1.6,1.2 -3.2,2.4 -4.8,3.6 -2.4,1.7 -4.7,3.5 -7,5.2 198.5,-23.1 381.4,-12.5 532.7,44.2"
         style="fill:#ff8d00;fill-opacity:1;fill-rule:nonzero;stroke:none"
         id="path30" />
      <path
         d="m 18234.2,12645.7 c 418,621.6 1283.3,1857.2 1911.3,2863.7 l -4588,3605.1 c -557.3,-1076.1 -1595,-3417.8 -3755.9,-6137.3 l 50.1,-29 -384.7,-450.4 c -17.7,9 -40.3,-0.3 -44.5,-22.4 -1.4,-7.5 -2.1,-15.2 -2.2,-22.9 0,-11.8 -27.8,-194.7 -46.9,-319.3 -9.3,-60.6 40.9,-114.7 106.1,-114.4 l 1096.6,4.3 c 0,0 19,93 -14.3,131.3 -54.7,62.9 -128.1,90.3 -200.8,110.4 -97.1,26.8 -362.7,102.4 -498.4,179.4 -10.9,6.2 -23.3,9.3 -35.6,9.2 l 399.6,278 59.1,-34.2 c 1954,1542.1 3414.4,3340.3 4246.2,4543.4 948.6,-642.6 2264.9,-1113.3 2754.1,-1184.5 15,-2.2 20.6,-19.6 9.6,-29.3 -749.6,-654.4 -1140.8,-1671 -1547.5,-3160.3 1.6,-0.5 3.1,-1.1 4.6,-1.7 l -126.4,-373.9 c -17.8,19.5 -49,11.5 -54,-15 -1.5,-7.5 -2.2,-15.2 -2.2,-22.9 -0.1,-11.8 -27.9,-194.7 -47,-319.3 -9.3,-60.6 40.9,-114.7 106.2,-114.4 l 1096.5,4.3 c 0,0 19,93 -14.3,131.3 -54.7,62.9 -128.1,90.3 -200.8,110.4 -97.1,26.8 -362.7,102.5 -498.4,179.4 -11.2,6.4 -23.8,9.4 -36.4,9.2 l 165,227 c 27.9,-11.3 58.7,-23 93.3,-35.2"
         style="fill:#f11744;fill-opacity:1;fill-rule:nonzero;stroke:none"
         id="path32" />
      <path
         d="m 11847.4,13561.8 h 72.5 c 67.8,0 118.5,13.4 152.2,40.2 33.6,26.8 50.4,65.8 50.4,117 0,51.6 -14.1,89.8 -42.3,114.4 -28.2,24.7 -72.4,37 -132.6,37 h -100.2 z m 497.7,165 c 0,-111.9 -35,-197.4 -104.9,-256.7 -69.9,-59.2 -169.3,-88.9 -298.2,-88.9 h -94.6 v -369.6 H 11627 V 14051 h 332 c 126.1,0 222,-27.2 287.6,-81.4 65.7,-54.3 98.5,-135.2 98.5,-242.8"
         style="fill:#ffffff;fill-opacity:1;fill-rule:nonzero;stroke:none"
         id="path34" />  <!-- (P)OOR -->
      <path
         d="m 12726.2,13532.7 c 0,-116.1 22,-203.6 66.1,-262.4 44,-58.7 109.9,-88.1 197.6,-88.1 175.9,0 263.8,116.8 263.8,350.5 0,234.1 -87.5,351.2 -262.4,351.2 -87.7,0 -153.8,-29.5 -198.3,-88.5 -44.6,-59 -66.8,-146.6 -66.8,-262.7 z m 758.5,0 c 0,-172.1 -42.6,-304.3 -127.9,-396.7 -85.3,-92.5 -207.6,-138.7 -366.9,-138.7 -159.2,0 -281.5,46.2 -366.8,138.7 -85.4,92.4 -128,225.1 -128,398.1 0,173 42.8,305.1 128.3,396.4 85.6,91.2 208.2,136.8 367.9,136.8 159.8,0 281.9,-46 366.5,-137.9 84.6,-91.9 126.9,-224.2 126.9,-396.7"
         style="fill:#ffffff;fill-opacity:1;fill-rule:nonzero;stroke:none"
         id="path36" /> <!-- P(O)OR -->
      <path
         d="m 13885,13532.7 c 0,-116.1 22.1,-203.6 66.1,-262.4 44.1,-58.7 110,-88.1 197.7,-88.1 175.8,0 263.8,116.8 263.8,350.5 0,234.1 -87.5,351.2 -262.4,351.2 -87.7,0 -153.8,-29.5 -198.3,-88.5 -44.6,-59 -66.9,-146.6 -66.9,-262.7 z m 758.6,0 c 0,-172.1 -42.6,-304.3 -128,-396.7 -85.3,-92.5 -207.6,-138.7 -366.8,-138.7 -159.3,0 -281.6,46.2 -366.9,138.7 -85.3,92.4 -127.9,225.1 -127.9,398.1 0,173 42.7,305.1 128.3,396.4 85.5,91.2 208.2,136.8 367.9,136.8 159.7,0 281.9,-46 366.5,-137.9 84.6,-91.9 126.9,-224.2 126.9,-396.7"
         style="fill:#ffffff;fill-opacity:1;fill-rule:nonzero;stroke:none"
         id="path38" />  <!-- PO(O)R -->
      <path
         d="m 15079.4,13589.6 h 71.1 c 69.7,0 121.1,11.6 154.3,34.8 33.2,23.2 49.8,59.7 49.8,109.5 0,49.3 -17,84.4 -50.8,105.2 -33.9,20.9 -86.4,31.3 -157.5,31.3 h -66.9 z m 0,-179.2 v -398.8 H 14859 V 14051 h 302.9 c 141.2,0 245.8,-25.7 313.5,-77.2 67.8,-51.4 101.7,-129.5 101.7,-234.2 0,-61.2 -16.8,-115.6 -50.5,-163.2 -33.6,-47.6 -81.3,-84.9 -142.9,-112 156.4,-233.6 258.3,-384.6 305.7,-452.8 h -244.5 l -248.2,398.8 h -117.3"
         style="fill:#ffffff;fill-opacity:1;fill-rule:nonzero;stroke:none"
         id="path40" /> <!-- POO(R) -->
      <path
         d="m 30414.1,13011.6 h -598.7 V 14051 h 598.7 v -180.6 h -378.3 v -228.2 h 352 v -180.6 h -352 v -268 h 378.3 v -182"
         style="fill:#ffffff;fill-opacity:1;fill-rule:nonzero;stroke:none"
         id="path42" /> <!-- (E)XCELLENT -->
      <path
         d="m 31471.3,13011.6 h -251.7 l -241.8,393.1 -241.7,-393.1 h -236 l 344.8,536 -322.8,503.4 h 243.2 l 223.9,-374 219.7,374 h 237.5 l -326.4,-515.5 351.3,-523.9"
         style="fill:#ffffff;fill-opacity:1;fill-rule:nonzero;stroke:none"
         id="path44" /> <!-- E(X)CELLENT -->
      <path
         d="m 32043.6,13882.5 c -83,0 -147.2,-31.2 -192.7,-93.5 -45.5,-62.3 -68.2,-149.2 -68.2,-260.6 0,-231.7 86.9,-347.6 260.9,-347.6 73,0 161.4,18.2 265.2,54.7 v -184.8 c -85.3,-35.6 -180.6,-53.4 -285.8,-53.4 -151.2,0 -266.9,45.9 -347,137.6 -80.1,91.7 -120.1,223.4 -120.1,395 0,108 19.6,202.7 59,284 39.3,81.3 95.8,143.6 169.5,187 73.7,43.3 160.1,65 259.2,65 101,0 202.4,-24.4 304.3,-73.2 l -71.1,-179.2 c -38.9,18.5 -78,34.6 -117.3,48.4 -39.4,13.7 -78,20.6 -115.9,20.6"
         style="fill:#ffffff;fill-opacity:1;fill-rule:nonzero;stroke:none"
         id="path46" /> <!-- EX(C)ELLENT -->
      <path
         d="m 33128.5,13011.6 h -598.6 V 14051 h 598.6 v -180.6 h -378.2 v -228.2 h 351.9 v -180.6 h -351.9 v -268 h 378.2 v -182"
         style="fill:#ffffff;fill-opacity:1;fill-rule:nonzero;stroke:none"
         id="path48" /> <!-- EXC(E)LLENT -->
      <path
         d="M 33345.4,13011.6 V 14051 h 220.4 v -857.4 h 421.6 v -182 h -642"
         style="fill:#ffffff;fill-opacity:1;fill-rule:nonzero;stroke:none"
         id="path50" /> <!-- EXCE(L)LENT -->
      <path
         d="M 34167.9,13011.6 V 14051 h 220.4 v -857.4 h 421.7 v -182 h -642.1"
         style="fill:#ffffff;fill-opacity:1;fill-rule:nonzero;stroke:none"
         id="path52" /> <!-- EXCEL(L)ENT -->
      <path
         d="m 35589.2,13011.6 h -598.7 V 14051 h 598.7 v -180.6 h -378.3 v -228.2 h 352 v -180.6 h -352 v -268 h 378.3 v -182"
         style="fill:#ffffff;fill-opacity:1;fill-rule:nonzero;stroke:none"
         id="path54" /> <!-- EXCELL(E)NT -->
      <path
         d="M 36728.1,13011.6 H 36448 l -452.2,786.3 h -6.4 c 9,-138.9 13.5,-237.9 13.5,-297.2 v -489.1 H 35806 V 14051 h 278 l 451.5,-778.5 h 4.9 c -7.1,135.1 -10.6,230.6 -10.6,286.5 v 492 h 198.3 v -1039.4"
         style="fill:#ffffff;fill-opacity:1;fill-rule:nonzero;stroke:none"
         id="path56" /> <!-- EXCELLE(N)T -->
      <path
         d="m 37390.7,13011.6 h -220.3 v 856 h -282.3 v 183.4 h 784.9 v -183.4 h -282.3 v -856"
         style="fill:#ffffff;fill-opacity:1;fill-rule:nonzero;stroke:none"
         id="path58" /> <!-- EXCELLEN(T) -->
      <path
         d="m 26219.3,12159.7 c -8.2,-908.1 -751,-1637.5 -1659.1,-1629.3 -908,8.3 -1637.5,751.1 -1629.2,1659.2 8.3,908 751.1,1637.5 1659.1,1629.2 908.1,-8.3 1637.5,-751.1 1629.2,-1659.1"
         style="fill:#8383b7;fill-opacity:1;fill-rule:nonzero;stroke:none"
         id="path60" />
      <path
         d="m 23633,10183.8 1848,-16.8 -392.5,15275.1 c -7.1,277.2 -416.5,285.6 -435,8.9 L 23633,10183.8"
         style="fill:#3f3f63;fill-opacity:1;fill-rule:nonzero;stroke:none"
         id="path62" />
      <path
         d="m 24874.2,25654.2 c -105.2,1.7 -211.4,-65.3 -220.7,-203.2 L 23633,10183.8 l 927.1,-8.4 314.1,15478.8"
         style="fill:#5d5d89;fill-opacity:1;fill-rule:nonzero;stroke:none"
         id="path64" />
      <path
         d="M 43279.6,7092.6 H 6042.33 v 2517.8 c 0,1330.8 1078.81,2409.6 2409.58,2409.6 H 40870 c 1330.7,0 2409.6,-1078.8 2409.6,-2409.6 V 7092.6"
         style="fill:#4f4fe5;fill-opacity:1;fill-rule:nonzero;stroke:none"
         id="path66" /> <!-- Purple Tab -->
      <path
         d="m 24585.4,23900.4 c -51.9,-286.6 -561.4,-214.2 -414,78 241.7,479 274.8,784.5 328.6,949.9 25.2,77.2 92,117.4 106,33.1 4.6,-27.4 8.7,-213.1 9.8,-270.3 3.7,-204.2 18.3,-521.3 -30.4,-790.7"
         style="fill:#ffaeae;fill-opacity:1;fill-rule:nonzero;stroke:none"
         id="path68" />
      <path
         d="m 24625.9,23481.4 c -51.8,-286.6 -561.4,-214.3 -413.9,77.9 241.7,479.1 274.7,784.6 328.6,949.9 25.1,77.2 92,117.5 106,33.1 4.5,-27.3 8.7,-213.1 9.8,-270.3 3.7,-204.1 18.3,-521.3 -30.5,-790.6"
         style="fill:#ffcece;fill-opacity:1;fill-rule:nonzero;stroke:none"
         id="path70" />
      <path
         d="m 24144.3,24190.8 c -1475.8,-372.9 -3415.7,-756.4 -4141.7,-896.5 -189.5,-36.6 -362.6,-132 -494.7,-272.7 v 0 c -178.4,-189.9 -116.3,-502.3 123.7,-603.8 26.2,-11 50.1,-17.5 70.3,-17.7 1176.7,-11 2649.8,295.3 4525.8,1250 74.3,114.9 36.4,474.8 -83.4,540.7"
         style="fill:#865eff;fill-opacity:1;fill-rule:nonzero;stroke:none"
         id="path72" />
      <path
         d="m 12296.4,12466.7 160.6,-161.6 648.5,481.1 c 81,88.4 226.3,685.3 226.3,685.3 17.4,136 -91.8,181.6 -173.2,71.2 l -862.2,-1076"
         style="fill:#ffcece;fill-opacity:1;fill-rule:nonzero;stroke:none"
         id="path74" />
      <path
         d="m 13325.7,12152.3 c -50.5,61.8 -118.2,88.8 -185.3,108.5 -89.7,26.5 -334.8,100.9 -460.1,176.6 -18.1,11 -40.6,12.4 -59.4,2.7 -142.1,-72.9 -260.3,-1.8 -296.3,42.2 -16.3,20 -45.8,12.1 -50.4,-14.2 -1.3,-7.4 -2,-14.9 -2.1,-22.6 0,-11.5 -25.6,-191.5 -43.3,-314.2 -8.6,-59.5 37.8,-112.8 98,-112.5 l 1012.1,4.3 c 0,0 17.6,91.5 -13.2,129.2"
         style="fill:#3f3f63;fill-opacity:1;fill-rule:nonzero;stroke:none"
         id="path76" />
      <path
         d="m 19755.8,23276.1 c -692.2,-559.2 21.6,-1651.8 734.5,-502.8 137.8,193.8 312,337.9 388.7,500.8 -172.8,106 -494.7,513.7 -625.1,669.5 18.1,-410.1 -360.3,-633.9 -498.1,-667.5"
         style="fill:#ffcece;fill-opacity:1;fill-rule:nonzero;stroke:none"
         id="path78" />
      <path
         d="m 18155.4,12972.4 -200.7,-632.9 189.6,-154.5 434.1,636.5 c 17.4,130.2 103,312.9 106.3,432.7 l 88.3,279.9 c 3.8,137.1 -177.2,189.5 -247.2,71.6 l -370.4,-633.3"
         style="fill:#ffcece;fill-opacity:1;fill-rule:nonzero;stroke:none"
         id="path80" />
      <path
         d="m 19002,12152.8 c -50.5,61.8 -118.3,88.8 -185.4,108.5 -89.6,26.5 -334.8,100.9 -460,176.6 -18.1,11 -40.6,12.4 -59.5,2.7 -142.1,-72.9 -260.3,-1.8 -296.2,42.2 -16.4,20 -45.8,12.1 -50.5,-14.2 -1.3,-7.4 -2,-14.9 -2,-22.6 -0.1,-11.5 -25.7,-191.5 -43.4,-314.2 -8.5,-59.5 37.8,-112.8 98,-112.5 l 1012.2,4.3 c 0,0 17.5,91.5 -13.2,129.2"
         style="fill:#3f3f63;fill-opacity:1;fill-rule:nonzero;stroke:none"
         id="path82" />
      <path
         d="M 16323.4,19438.4 17704.2,18423 c -176.5,-495.7 -1870.3,-3412 -4633.3,-5736.6 l -446.9,275.5 c 2344.1,3144.9 3256.2,5776.4 3699.4,6476.5"
         style="fill:#3f3f63;fill-opacity:1;fill-rule:nonzero;stroke:none"
         id="path84" />
      <path
         d="m 16021.2,18608.4 c 59.6,483.8 328.1,934.4 328.1,934.4 l 468.2,245.5 1205.6,-414.2 -132.2,-731 c 801.9,-902.8 3267.1,-1744.5 2521.8,-3039.3 -584,-1014.6 -1445.8,-2325.2 -1851.3,-2968.1 -243.2,91.8 -287,152.5 -448.7,217.3 375.4,1465.5 736.5,2465.8 1428.3,3109.8 10.2,9.5 5,26.6 -8.8,28.8 -758,117.6 -3667.9,1343.3 -3511,2616.8"
         style="fill:#5d5d89;fill-opacity:1;fill-rule:nonzero;stroke:none"
         id="path86" />
      <path
         d="m 16222.7,19291.5 c 68.3,153.5 126.6,251.3 126.6,251.3 l 468.2,245.5 1205.6,-414.2 -132.2,-731 c 129.6,-145.9 302.6,-290.1 498.5,-435 -665.9,-112.5 -1762.6,587.1 -2166.7,1083.4"
         style="fill:#3f3f63;fill-opacity:1;fill-rule:nonzero;stroke:none"
         id="path88" />
      <path
         d="m 18730.1,18367.1 c -699.2,-279.4 -2129.5,574.8 -2442,1071.2 847.4,1920.3 2336.8,3935.7 3653.2,3717.6 279.1,-46.2 608.2,-635.8 583.9,-903.7 -452.4,-795.4 -1281,-2224.5 -1759.3,-3845.3 -5.3,-18 -18.4,-32.8 -35.8,-39.8"
         style="fill:#9174f2;fill-opacity:1;fill-rule:nonzero;stroke:none"
         id="path90" />
      <path
         d="m 20421.9,23712.4 c 24.9,-11.2 76.5,-15.2 109,6.5 65.9,43.8 81.4,174.7 85.1,231.8 0.9,14.2 14.2,24.2 28.1,21 52.1,-11.8 85.5,-56.9 133.6,-58.7 58.2,-2.2 115.8,34.2 154.4,82.8 19.2,24.2 56.3,24 75,-0.7 33.9,-44.8 67,-81.1 137.7,-87.2 26.8,-2.4 58.5,1 82.3,13.9 14.5,7.8 24.5,17.4 32.5,27.9 13.3,17.5 40.8,15.2 50.4,-4.5 36.1,-74.6 123.2,-121.4 207,-93.8 65.9,21.7 102.8,105.7 87.1,173.1 -3.3,14 3.5,28.5 16.8,34.2 14.7,6.3 28.2,15.5 39.7,29.3 37.7,45.2 56.8,107.1 55.2,164.6 -1.9,63.7 -25.2,126.4 -84.1,158.4 -33.5,18.2 -61.2,21 -98.3,18.2 -14.1,-1.1 -30.9,3 -35.8,16.2 -1.9,5 -1.7,10.6 -1.4,16 4,84.8 1.5,174 -81.2,221.7 -29.8,17 -63.1,22.9 -96.8,16.6 -33.9,-6.4 -59.7,-30.9 -95.4,-32.9 -48.3,-2.7 -64.9,31.7 -93.8,61.6 -31.8,33 -75.3,47.3 -120.6,45 -44.8,-2.4 -82,-17 -110.1,-52.1 -12.1,-15 -20.3,-29.4 -28.9,-46.6 -5.8,-11.6 -15.4,-23.1 -28.4,-23.8 -11.9,-0.7 -22.3,8 -30.3,16.9 -17.1,18.9 -36.6,31.2 -61.8,37.1 -36,8.5 -102.6,3.7 -136.8,-9.4 -57.1,-22.1 -104.3,-78.9 -98.6,-142.1 0.6,-7 1.8,-14.1 0.1,-20.9 -2.2,-8.6 -9.3,-15.7 -17.8,-17.9 -14.9,-3.9 -35.4,10.7 -50.3,13.9 -20.3,4.3 -41.4,4.3 -61.9,1.2 -39.7,-5.9 -79.4,-23.8 -108.1,-52.3 -144.8,-144.1 123.7,-754.8 146.4,-765"
         style="fill:#8383b7;fill-opacity:1;fill-rule:nonzero;stroke:none"
         id="path92" />
      <path
         d="m 21344.6,24244.9 c 99.1,-101.8 122.1,-261.4 120,-421.1 -11.6,-241.1 -99.3,-497.5 -193.9,-665.6 -177.5,-315.2 -546,-487.3 -809.1,-161.6 -228.4,282.9 -232.1,664.1 -158.8,1006 4.7,20.3 9.6,40.5 14.8,60.5 107.8,413.8 827,387.6 1027,181.8"
         style="fill:#ffcece;fill-opacity:1;fill-rule:nonzero;stroke:none"
         id="path94" />
      <path
         d="m 20302.8,24002.6 c 4.7,20.3 9.6,40.5 14.8,60.5 107.8,413.8 827,387.6 1027,181.8 99.1,-101.8 122.1,-261.4 120,-421.1 -1.2,-25 -3.3,-50.2 -6,-75.5 -77.2,-5.7 -146.2,47.8 -169.6,119 -6.6,20.3 -32.7,25.9 -47.7,10.8 -9.1,-9.1 -20,-17 -34.8,-22.7 -24.5,-9.3 -55.4,-8.6 -80.8,-2.9 -67.1,15 -94.2,54.1 -121,101.6 -14.8,26.2 -50.4,31.1 -72,10.3 -43.2,-41.8 -103.1,-69.5 -158.7,-59.9 -46,7.8 -72.3,55.6 -120.8,73.6 -12.9,4.8 -26.9,-3.1 -29.6,-16.6 -10.9,-54.5 -42.6,-178.5 -111.5,-212.3 -33.9,-16.6 -79.9,-20.1 -105.4,7.8 -10.3,11.2 -40.1,30.8 -43.8,45.6 -11.2,43.9 -26.1,125.8 -65.4,174.6 1.7,8.5 3.4,17 5.3,25.4"
         style="fill:#ffaeae;fill-opacity:1;fill-rule:nonzero;stroke:none"
         id="path96" />
      <path
         d="m 20104.8,23990.8 c 19.3,-47.4 43.9,-95.6 92.6,-118.2 50.9,-23.7 -17,82.4 34.2,77.8 85.1,-7.6 102.8,-111.1 126,-169 5.7,-14.2 49.6,-54.5 71.6,-64.4 24.1,-10.8 74.1,-14.7 105.5,6.3 63.8,42.6 78.9,169.7 82.4,225.1 0.9,13.8 13.8,23.5 27.2,20.4 50.5,-11.5 82.9,-55.3 129.5,-57 56.3,-2.1 112.1,33.2 149.4,80.3 18.6,23.6 54.6,23.3 72.7,-0.6 32.8,-43.6 64.9,-78.8 133.4,-84.8 25.9,-2.2 56.6,1.1 79.6,13.6 14,7.5 23.8,16.9 31.5,27.1 12.9,16.9 39.5,14.7 48.8,-4.4 35,-72.5 119.4,-117.9 200.5,-91.1 63.8,21 99.5,102.6 84.3,168 -3.2,13.7 3.4,27.8 16.3,33.3 14.2,6 27.3,15 38.4,28.4 36.5,43.9 55,104 53.4,159.8 -1.8,61.9 -24.4,122.7 -81.4,153.8 -22.6,12.3 -50.1,22.2 -76.3,21.4 -6.7,-0.2 -13.6,-1.7 -20.5,-3.6 -20.8,-5.5 -40.4,12.7 -35.6,33.7 17.7,78.8 -1.5,169.6 -77.5,212.8 -55.6,31.6 -106.6,18.7 -145.7,-4.9 -38.6,-23.3 -87.9,-11.8 -112.9,25.8 -24.8,37.4 -66.4,70.4 -135.2,66.8 -43.4,-2.3 -79.4,-16.5 -106.6,-50.5 -11.3,-14.2 -23.1,-30.2 -29.3,-47.4 -0.1,-0.3 -0.2,-0.5 -0.3,-0.7 -7.4,-21.6 -34.8,-27 -49.5,-9.6 -16.3,19.4 -36.5,34.9 -65.5,41.7 -35,8.3 -99.4,3.6 -132.6,-9.1 -33.5,-13 -72.2,-46.6 -86.1,-79.9 -8.3,-20 -6.7,-41.1 -2.7,-61.7 4.4,-23.2 -19.2,-42.4 -40.3,-31.8 -63.3,32 -159.7,6 -208.1,-37.6 -45.6,-41.2 -61.9,-122.1 -45.9,-186.1 4.1,-16.6 -7.4,-32.4 -24.4,-34.9 -38.3,-5.6 -79,-41.2 -95.3,-68.4 -29.9,-50.2 -27.3,-127.4 -5.6,-180.4"
         style="fill:#5d5d89;fill-opacity:1;fill-rule:nonzero;stroke:none"
         id="path98" /> <!-- Hair Overlay -->
      <path
         d="m 20135.9,23825.7 c 2.2,106.1 76.4,189.4 165.9,186.1 89.4,-3.4 160.2,-92.2 158,-198.3 -2.1,-106.1 -76.4,-189.4 -165.8,-186.1 -89.5,3.4 -160.2,92.1 -158.1,198.3"
         style="fill:#ffcece;fill-opacity:1;fill-rule:nonzero;stroke:none"
         id="path100" /> <!-- Ear -->
      <path
         d="m 20322.9,22935.8 c -96.4,216.8 -296.2,400.7 -564,436.3 -6.7,0.9 -13.5,0.2 -19.8,-2.2 -107.5,-39.8 -202.3,-122.4 -253.1,-222.9 173.9,-92.2 562.3,-243.1 836.9,-211.2"
         style="fill:#f4f1fe;fill-opacity:1;fill-rule:nonzero;stroke:none"
         id="path102" /> <!-- White Collar -->
      <path
         d="m 19808.9,22055 712.9,290.1 c 4.6,-33.8 5.9,-65.1 3.4,-92.9 -52.9,-93.1 -111.1,-195 -173.2,-304.8 -182.5,37.9 -543.1,107.6 -543.1,107.6"
         style="fill:#865eff;fill-opacity:1;fill-rule:nonzero;stroke:none"
         id="path104" /> <!-- Right Arm Shadow-->
      <path
         d="m 24280.3,23796.5 c -1475.7,-372.9 -3415.6,-756.3 -4141.6,-896.5 -189.5,-36.6 -362.6,-132 -494.7,-272.6 v 0 c -178.5,-190 -116.4,-502.4 123.7,-603.8 26.2,-11.1 50,-17.6 70.2,-17.8 1176.8,-10.9 2649.8,295.3 4525.9,1250 74.3,114.9 36.4,474.9 -83.5,540.7"
         style="fill:#9174f2;fill-opacity:1;fill-rule:nonzero;stroke:none"
         id="path106" /> <!-- Right Arm -->
      <path
         d="m 15565.4,10187.6 c -135.1,0 -240.5,-55.3 -316.1,-166 -75.7,-110.6 -113.5,-263.2 -113.5,-457.6 0,-404.3 153.7,-606.4 461.2,-606.4 92.9,0 183,12.9 270.1,38.8 87.2,25.9 174.8,57 263,93.4 v -479.9 c -175.3,-77.6 -373.6,-116.4 -594.9,-116.4 -317.1,0 -560.2,91.9 -729.2,275.9 -169.1,183.9 -253.6,449.7 -253.6,797.4 0,217.5 40.9,408.6 122.8,573.4 81.9,164.7 199.8,291.4 353.5,380 153.8,88.6 334.6,132.9 542.4,132.9 227.1,0 444,-49.3 651,-148 l -173.9,-446.8 c -77.6,36.4 -155.2,67 -232.8,91.9 -77.6,24.9 -160.9,37.4 -250,37.4"
         style="fill:#ffffff;fill-opacity:1;fill-rule:nonzero;stroke:none"
         id="path108" /> <!-- (C)REDIT SCORE-->
      <path
         d="m 17107.2,9713.4 h 106.3 c 198.3,0 297.4,87.7 297.4,263 0,144.6 -97.2,216.9 -291.6,216.9 h -112.1 z m 0,-426.7 v -764.5 h -567.6 V 10623 h 688.3 c 570.9,0 856.4,-206.9 856.4,-620.8 0,-243.3 -118.8,-431.5 -356.4,-564.7 l 612.1,-915.3 h -643.7 l -445.4,764.5 h -143.7"
         style="fill:#ffffff;fill-opacity:1;fill-rule:nonzero;stroke:none"
         id="path110" /> <!-- C(R)EDIT SCORE-->
      <path
         d="M 19778.4,8522.2 H 18531.1 V 10623 h 1247.3 v -455.5 h -679.7 V 9837 h 629.4 v -455.5 h -629.4 v -396.6 h 679.7 v -462.7"
         style="fill:#ffffff;fill-opacity:1;fill-rule:nonzero;stroke:none"
         id="path112" /> <!-- CR(E)DIT SCORE-->
      <path
         d="m 21340.3,9597 c 0,192.6 -38.1,335.3 -114.3,428.2 -76.1,92.9 -191.8,139.4 -347,139.4 h -165.2 V 8987.8 h 126.4 c 172.5,0 298.9,50 379.4,150.1 80.4,100.1 120.7,253.2 120.7,459.1 z m 589.1,20.1 c 0,-350.6 -96.5,-620.7 -289.5,-810.4 -193.1,-189.6 -464.4,-284.5 -814,-284.5 h -679.7 V 10623 h 727.1 c 337.2,0 597.5,-86.2 780.9,-258.7 183.5,-172.4 275.2,-421.5 275.2,-747.2"
         style="fill:#ffffff;fill-opacity:1;fill-rule:nonzero;stroke:none"
         id="path114" /> <!-- CRE(D)IT SCORE-->
      <path
         d="M 22305.9,8522.2 V 10623 h 570.4 V 8522.2 h -570.4"
         style="fill:#ffffff;fill-opacity:1;fill-rule:nonzero;stroke:none"
         id="path116" /> <!-- CRED(I)T SCORE-->
      <path
         d="m 24257.2,8522.2 h -567.6 v 1636.6 h -513 v 464.2 h 1592.1 v -464.2 h -511.5 V 8522.2"
         style="fill:#ffffff;fill-opacity:1;fill-rule:nonzero;stroke:none"
         id="path118" /> <!-- CREDI(T) SCORE-->
      <path
         d="m 27207.1,9160.2 c 0,-130.3 -33,-246 -99.1,-347 -66.1,-101.1 -161.5,-179.6 -286,-235.7 -124.5,-56 -270.6,-84 -438.2,-84 -139.9,0 -257.2,9.8 -352.1,29.4 -94.8,19.7 -193.5,53.9 -296,102.8 v 505.8 c 108.3,-55.6 220.8,-99 337.7,-130.1 116.9,-31.1 224.2,-46.7 321.9,-46.7 84.3,0 146,14.6 185.3,43.9 39.3,29.2 58.9,66.8 58.9,112.8 0,28.7 -7.9,53.8 -23.7,75.4 -15.8,21.5 -41.2,43.3 -76.1,65.4 -35,22 -128.1,67 -279.5,135 -137,62.3 -239.7,122.6 -308.2,181.1 -68.5,58.4 -119.3,125.5 -152.3,201.2 -33.1,75.6 -49.6,165.2 -49.6,268.7 0,193.4 70.4,344.3 211.2,452.6 140.8,108.2 334.3,162.3 580.5,162.3 217.5,0 439.2,-50.2 665.3,-150.8 l -173.8,-438.3 c -196.4,90 -366,135.1 -508.7,135.1 -73.8,0 -127.4,-12.9 -160.9,-38.8 -33.6,-25.9 -50.3,-58 -50.3,-96.3 0,-41.2 21.3,-78.1 63.9,-110.6 42.6,-32.6 158.3,-92 347,-178.2 181.1,-81.4 306.8,-168.8 377.2,-262.2 70.4,-93.4 105.6,-211 105.6,-352.8"
         style="fill:#ffffff;fill-opacity:1;fill-rule:nonzero;stroke:none"
         id="path120" /> <!-- CREDIT (S)CORE-->
      <path
         d="m 28467.3,10187.6 c -135.1,0 -240.5,-55.3 -316.1,-166 -75.7,-110.6 -113.6,-263.2 -113.6,-457.6 0,-404.3 153.8,-606.4 461.3,-606.4 92.9,0 182.9,12.9 270.1,38.8 87.2,25.9 174.8,57 263,93.4 v -479.9 c -175.3,-77.6 -373.6,-116.4 -594.9,-116.4 -317.1,0 -560.2,91.9 -729.2,275.9 -169.1,183.9 -253.6,449.7 -253.6,797.4 0,217.5 40.9,408.6 122.8,573.4 81.9,164.7 199.7,291.4 353.5,380 153.7,88.6 334.5,132.9 542.4,132.9 227,0 444,-49.3 650.9,-148 l -173.8,-446.8 c -77.6,36.4 -155.2,67 -232.8,91.9 -77.6,24.9 -160.9,37.4 -250,37.4"
         style="fill:#ffffff;fill-opacity:1;fill-rule:nonzero;stroke:none"
         id="path122" /> <!-- CREDIT S(C)ORE-->
      <path
         d="m 29961.6,9575.5 c 0,-406.2 141.3,-609.3 423.9,-609.3 143.7,0 250.3,49.4 319.7,148 69.5,98.7 104.2,252.4 104.2,461.3 0,209.8 -35.2,364.7 -105.6,464.8 -70.4,100.1 -175.6,150.2 -315.4,150.2 -284.5,0 -426.8,-205 -426.8,-615 z m 1445.6,0 c 0,-353.5 -86.8,-622.2 -260.1,-806.1 -173.4,-184 -427.3,-275.9 -761.6,-275.9 -329.5,0 -582.2,92.4 -757.9,277.3 -175.8,184.9 -263.7,454.1 -263.7,807.5 0,349.7 87.4,616.7 262.2,801.1 174.8,184.4 428.9,276.6 762.3,276.6 334.3,0 587.7,-91.5 760.1,-274.4 172.4,-183 258.7,-451.7 258.7,-806.1"
         style="fill:#ffffff;fill-opacity:1;fill-rule:nonzero;stroke:none"
         id="path124" /> <!-- CREDIT SC(O)RE-->
      <path
         d="m 32354.1,9713.4 h 106.3 c 198.3,0 297.4,87.7 297.4,263 0,144.6 -97.2,216.9 -291.6,216.9 h -112.1 z m 0,-426.7 v -764.5 h -567.6 V 10623 h 688.3 c 570.9,0 856.4,-206.9 856.4,-620.8 0,-243.3 -118.8,-431.5 -356.4,-564.7 l 612.1,-915.3 h -643.7 l -445.4,764.5 h -143.7"
         style="fill:#ffffff;fill-opacity:1;fill-rule:nonzero;stroke:none"
         id="path126" /> <!-- CREDIT SCO(R)E -->
      <path
         d="M 35025.3,8522.2 H 33778 V 10623 h 1247.3 v -455.5 h -679.7 V 9837 h 629.4 v -455.5 h -629.4 v -396.6 h 679.7 v -462.7"
         style="fill:#ffffff;fill-opacity:;fill-rule:nonzero;stroke:none"
         id="path128" /> <!-- CREDIT SCOR(E) -->
    </g>
  </g>
</svg>
