<?xml version="1.0" encoding="UTF-8" standalone="no"?>
<!-- Created with Inkscape (http://www.inkscape.org/) -->

<svg
   version="1.1"
   id="svg2"
   width="2666.6667"
   height="2666.6667"
   viewBox="0 0 2666.6667 2666.6667"
   sodipodi:docname="vecteezy_ninja-face-logo-vector_13045223.eps"
   xmlns:inkscape="http://www.inkscape.org/namespaces/inkscape"
   xmlns:sodipodi="http://sodipodi.sourceforge.net/DTD/sodipodi-0.dtd"
   xmlns="http://www.w3.org/2000/svg"
   xmlns:svg="http://www.w3.org/2000/svg">
  <defs
     id="defs6" />
  <sodipodi:namedview
     id="namedview4"
     pagecolor="#ffffff"
     bordercolor="#000000"
     borderopacity="0.25"
     inkscape:showpageshadow="2"
     inkscape:pageopacity="0.0"
     inkscape:pagecheckerboard="0"
     inkscape:deskcolor="#d1d1d1" />
  <g
     id="g8"
     inkscape:groupmode="layer"
     inkscape:label="ink_ext_XXXXXX"
     transform="matrix(1.3333333,0,0,-1.3333333,0,2666.6667)">
    <g
       id="g10"
       transform="scale(0.1)">
      <path
         d="m 11832.9,10806.6 c 199.4,199.4 1117,386 1117,386 0,0 -195.3,-908.9 -394.7,-1108.3 -199.5,-199.5 -522.9,-199.5 -722.3,0 -199.5,199.4 -199.5,522.8 0,722.3"
         style="fill:#231f20;fill-opacity:1;fill-rule:nonzero;stroke:none"
         id="path12" />
      <path
         d="m 9181.92,10084.3 c -199.46,199.4 -385.99,1117 -385.99,1117 0,0 908.84,-195.3 1108.3,-394.7 199.47,-199.5 199.47,-522.9 0,-722.3 -199.46,-199.5 -522.85,-199.5 -722.31,0"
         style="fill:#231f20;fill-opacity:1;fill-rule:nonzero;stroke:none"
         id="path14" />
      <path
         d="m 10919.2,9622.8 c -2305.91,0 -4175.22,-557.4 -4175.22,759.3 0,1095.5 1294.08,2018.3 3056.92,2297.5 -377.78,-335.7 -959.46,-741.1 -1726.79,-949.4 0,0 1410.9,301 2511.99,1028.5 11.4,0.5 22.8,0.9 34.3,1.4 -190.1,-276.1 -605.3,-737.2 -1318.34,-867.8 235.73,40.2 812.24,156.3 1312.84,397.3 41.2,19.9 81.9,40.6 121.9,62.2 205.5,111 391,245.3 525.2,406.4 44.4,-2.1 88.6,-4.6 132.6,-7.5 -4.3,-176.4 -112.1,-459.7 -689,-647.5 0,0 886.6,169.5 1429.1,560.2 1713,-297.1 2959.7,-1206 2959.7,-2281.3 0,-1316.7 -1869.3,-759.3 -4175.2,-759.3 z m 0,4656 c -2363.12,0 -4278.82,-1915.7 -4278.82,-4278.8 0,-2363.1 1915.7,-4278.8 4278.82,-4278.8 2363.1,0 4278.8,1915.7 4278.8,4278.8 0,2363.1 -1915.7,4278.8 -4278.8,4278.8"
         style="fill:#231f20;fill-opacity:1;fill-rule:nonzero;stroke:none"
         id="path16" />
      <path
         d="m 9302.06,11892.3 c -40.18,-6.8 -70.53,-11.5 -88.83,-14.2 30.09,4.2 59.74,8.9 88.83,14.2"
         style="fill:#231f20;fill-opacity:1;fill-rule:nonzero;stroke:none"
         id="path18" />
      <path
         d="m 9213.23,11878.1 c -6.75,-0.9 -13.4,-2 -20.19,-2.9 0,0 7,1 20.19,2.9"
         style="fill:#231f20;fill-opacity:1;fill-rule:nonzero;stroke:none"
         id="path20" />
      <path
         d="m 11458,10999.2 c 0,0 617,838 1841.9,488.1 0,0 -1095.9,221 -1841.9,-740.3 v 252.2"
         style="fill:#231f20;fill-opacity:1;fill-rule:nonzero;stroke:none"
         id="path22" />
      <path
         d="m 10223,10999.2 c 0,0 -617.02,838 -1841.92,488.1 0,0 1095.96,221 1841.92,-740.3 v 252.2"
         style="fill:#231f20;fill-opacity:1;fill-rule:nonzero;stroke:none"
         id="path24" />
      <path
         d="m 9284.98,8000.5 c 0,0 1900.32,-413.5 3268.42,290.1 0,0 -1278.3,-3669.1 -3268.42,-290.1"
         style="fill:#656263;fill-opacity:1;fill-rule:nonzero;stroke:none"
         id="path26" />
      <path
         d="m 6710.39,10603.1 c 0,0 -2836.59,-2714.6 -1593.28,-4032.7 0,0 1361.15,745.1 1626.87,3429.6 l -33.59,603.1"
         style="fill:#231f20;fill-opacity:1;fill-rule:nonzero;stroke:none"
         id="path28" />
      <path
         d="m 6668.17,9576.8 c 0,0 -1279.11,-1975.5 -371.71,-2572.4 0,0 690.88,622.8 474.7,2225.3 l -102.99,347.1"
         style="fill:#231f20;fill-opacity:1;fill-rule:nonzero;stroke:none"
         id="path30" />
    </g>
  </g>
</svg>
