<?xml version="1.0" encoding="UTF-8" standalone="no"?>
<!-- Created with Inkscape (http://www.inkscape.org/) -->

<svg
   version="1.1"
   id="svg2"
   width="2666.6667"
   height="2666.6667"
   viewBox="0 0 2666.6667 2666.6667"
   sodipodi:docname="vecteezy_ninja-face-logo-vector_13045219.eps"
   xmlns:inkscape="http://www.inkscape.org/namespaces/inkscape"
   xmlns:sodipodi="http://sodipodi.sourceforge.net/DTD/sodipodi-0.dtd"
   xmlns="http://www.w3.org/2000/svg"
   xmlns:svg="http://www.w3.org/2000/svg">
  <defs
     id="defs6" />
  <sodipodi:namedview
     id="namedview4"
     pagecolor="#ffffff"
     bordercolor="#000000"
     borderopacity="0.25"
     inkscape:showpageshadow="2"
     inkscape:pageopacity="0.0"
     inkscape:pagecheckerboard="0"
     inkscape:deskcolor="#d1d1d1" />
  <g
     id="g8"
     inkscape:groupmode="layer"
     inkscape:label="ink_ext_XXXXXX"
     transform="matrix(1.3333333,0,0,-1.3333333,0,2666.6667)">
    <g
       id="g10"
       transform="scale(0.1)">
      <path
         d="m 13004.2,10548.6 c 14.9,-25.7 23.8,-51.3 26.5,-76.6 -8.5,25.7 -17.5,51.1 -26.5,76.6 z m -2274.8,-733.3 c -401.4,0 -726.8,275.3 -726.8,614.9 0,7.1 0.3,14.2 0.6,21.3 406.1,118.5 863.9,43.2 863.9,43.2 -299.4,139.5 -601.7,136.3 -840.5,92.6 82.1,263.4 365.6,457.7 702.8,457.7 401.4,0 726.9,-275.3 726.9,-614.8 0,-339.6 -325.5,-614.9 -726.9,-614.9 z m -3039.84,0 c -401.41,0 -726.84,275.3 -726.84,614.9 0,7.1 0.35,14.2 0.64,21.3 406.06,118.5 863.89,43.2 863.89,43.2 -299.44,139.5 -601.71,136.3 -840.48,92.6 82.09,263.4 365.58,457.7 702.79,457.7 401.41,0 726.84,-275.3 726.84,-614.8 0,-339.6 -325.43,-614.9 -726.84,-614.9 z M 15059.8,11615 c -421.4,422.4 -2231.2,2174.6 -3506.6,2438 0,0 1083.8,-729.6 1604.9,-1407.7 -1178.4,575.2 -2585.5,1089 -3348.4,742 1399.5,-297.9 2534.7,-1309.5 3006.8,-2635.8 -241.7,418 -2045.8,873.6 -3864.91,873.6 -2124.71,0 -4143.46,-561.9 -3847.16,-1078.8 670.91,-1170.4 1722.45,-773.5 3847.16,-773.5 2124.71,0 2869.31,-396.9 3847.21,773.5 34.8,41.7 48.9,84.8 44.2,128.7 136.2,-408.3 210.2,-845.1 210.2,-1299.1 0,-2265.3 -1836.4,-4101.6 -4101.61,-4101.6 -1267.46,0 -2400.6,574.9 -3152.97,1478.2 C 6769.85,5497.8 8290.56,4690 10000,4690 c 2932.6,0 5310,2377.4 5310,5310 0,563.1 -87.7,1105.7 -250.2,1615"
         style="fill:#231f20;fill-opacity:1;fill-rule:nonzero;stroke:none"
         id="path12" />
      <path
         d="m 4850,9375.9 c 0,2078.7 1546.51,3796.1 3551.7,4064.8 0,0 879.11,1285 2574.6,1285 1694.8,0 3123.8,-2021.6 4079.3,-3097.4 -687.4,2136 -2691,3681.7 -5055.6,3681.7 -2932.63,0 -5310,-2377.4 -5310,-5310 0,-764.6 161.67,-1491.4 452.57,-2148.2 C 4953.88,8323 4850,8837.3 4850,9375.9"
         style="fill:#231f20;fill-opacity:1;fill-rule:nonzero;stroke:none"
         id="path14" />
      <path
         d="m 9028.63,5602.8 c 2010.57,0 3640.37,1629.9 3640.37,3640.5 0,93.2 -3.5,185.6 -10.4,277 C 12517.1,7639.2 10946,6156.9 9028.63,6156.9 c -1917.35,0 -3488.44,1482.3 -3630,3363.4 -6.89,-91.4 -10.43,-183.8 -10.43,-277 0,-2010.6 1629.87,-3640.5 3640.43,-3640.5"
         style="fill:#231f20;fill-opacity:1;fill-rule:nonzero;stroke:none"
         id="path16" />
    </g>
  </g>
</svg>
