<?xml version="1.0" encoding="UTF-8" standalone="no"?>
<!-- Created with Inkscape (http://www.inkscape.org/) -->

<svg
   version="1.1"
   id="svg2"
   width="2666.6667"
   height="2666.6667"
   viewBox="0 0 2666.6667 2666.6667"
   sodipodi:docname="vecteezy_ninja-face-logo-vector_13044771.eps"
   xmlns:inkscape="http://www.inkscape.org/namespaces/inkscape"
   xmlns:sodipodi="http://sodipodi.sourceforge.net/DTD/sodipodi-0.dtd"
   xmlns="http://www.w3.org/2000/svg"
   xmlns:svg="http://www.w3.org/2000/svg">
  <defs
     id="defs6" />
  <sodipodi:namedview
     id="namedview4"
     pagecolor="#ffffff"
     bordercolor="#000000"
     borderopacity="0.25"
     inkscape:showpageshadow="2"
     inkscape:pageopacity="0.0"
     inkscape:pagecheckerboard="0"
     inkscape:deskcolor="#d1d1d1" />
  <g
     id="g8"
     inkscape:groupmode="layer"
     inkscape:label="ink_ext_XXXXXX"
     transform="matrix(1.3333333,0,0,-1.3333333,0,2666.6667)">
    <g
       id="g10"
       transform="scale(0.1)">
      <path
         d="m 6121.88,10821.5 c 359.26,0 650.49,-151.9 650.49,-339.2 0,-187.3 -291.23,-339.2 -650.49,-339.2 -359.25,0 -650.48,151.9 -650.48,339.2 0,187.3 291.23,339.2 650.48,339.2 z m 1115.13,0 c 0,0 -780.58,315.9 -1524,120.8 0,0 947.86,455.3 1524,-120.8 z m 1644.05,0 c 0,0 -780.58,315.9 -1524,120.8 0,0 947.85,455.3 1524,-120.8 z m 168.02,-339.2 c 0,-187.3 -291.23,-339.2 -650.49,-339.2 -359.24,0 -650.48,151.9 -650.48,339.2 0,187.3 291.24,339.2 650.48,339.2 359.26,0 650.49,-151.9 650.49,-339.2 z M 4698.86,9949.6 c 15.98,-1.1 32.09,-1.9 48.36,-1.9 h 2038.77 v 0 c 81.67,-224.6 366.1,-292.9 540.91,-130 l 139.45,130 h 1692.37 c 379.13,0 685.74,310.5 679.4,691.1 -6.23,372.6 -317.96,667.9 -690.59,667.9 h -4045.3 c 563.28,1016.4 1646.77,1704.6 2891.16,1704.6 208.88,0 413.32,-19.6 611.62,-57 l 4627.09,1259.1 c -895.3,687.7 -2015.9,1096.6 -3232.1,1096.6 -2932.63,0 -5310,-2377.4 -5310,-5310 0,-54.8 0.94,-109.3 2.58,-163.7 1.48,37.9 3.54,75.7 6.28,113.3"
         style="fill:#231f20;fill-opacity:1;fill-rule:nonzero;stroke:none"
         id="path12" />
      <path
         d="m 13543.5,13954.6 -1565.7,-1309.8 2655.2,-861.5 -4004.4,-87.4 c 419.6,-554.5 668.8,-1244.5 668.2,-1990.8 C 11295.3,7882 9816.88,6404.5 7993.4,6404.5 6539.93,6404.5 5305.71,7343.2 4863.91,8647.4 5462.06,6369.9 7534.8,4690 10000,4690 c 2932.6,0 5310,2377.4 5310,5310 0,1570.9 -682.2,2982.4 -1766.5,3954.6"
         style="fill:#393536;fill-opacity:1;fill-rule:nonzero;stroke:none"
         id="path14" />
    </g>
  </g>
</svg>
