<?xml version="1.0" encoding="UTF-8" standalone="no"?>
<!-- Created with Inkscape (http://www.inkscape.org/) -->

<svg
   version="1.1"
   id="svg2"
   width="2666.6667"
   height="2666.6667"
   viewBox="0 0 2666.6667 2666.6667"
   sodipodi:docname="vecteezy_ninja-face-logo-vector_13043150.eps"
   xmlns:inkscape="http://www.inkscape.org/namespaces/inkscape"
   xmlns:sodipodi="http://sodipodi.sourceforge.net/DTD/sodipodi-0.dtd"
   xmlns="http://www.w3.org/2000/svg"
   xmlns:svg="http://www.w3.org/2000/svg">
  <defs
     id="defs6" />
  <sodipodi:namedview
     id="namedview4"
     pagecolor="#ffffff"
     bordercolor="#000000"
     borderopacity="0.25"
     inkscape:showpageshadow="2"
     inkscape:pageopacity="0.0"
     inkscape:pagecheckerboard="0"
     inkscape:deskcolor="#d1d1d1" />
  <g
     id="g8"
     inkscape:groupmode="layer"
     inkscape:label="ink_ext_XXXXXX"
     transform="matrix(1.3333333,0,0,-1.3333333,0,2666.6667)">
    <g
       id="g10"
       transform="scale(0.1)">
      <path
         d="m 9364.57,11821.2 c -229.14,0 -436.96,-62.6 -589.91,-164.3 59.66,17.8 125.41,27.7 194.52,27.7 271.31,0 491.25,-151.8 491.25,-339.1 0,-187.2 -219.94,-339 -491.25,-339 -205.44,0 -381.33,87.1 -454.67,210.6 13.04,-316.3 388.49,-570.1 850.06,-570.1 469.82,0 850.73,262.9 850.73,587.1 0,324.2 -380.91,587.1 -850.73,587.1"
         style="fill:#231f20;fill-opacity:1;fill-rule:nonzero;stroke:none"
         id="path12" />
      <path
         d="m 9332.71,12044.9 c -264.86,0 -501.41,-83.5 -657.43,-214.5 146.93,175.9 421.98,294.4 737.31,294.4 469.82,0 850.71,-262.8 850.71,-587.1 0,-141.4 -460.77,507.2 -930.59,507.2"
         style="fill:#231f20;fill-opacity:1;fill-rule:nonzero;stroke:none"
         id="path14" />
      <path
         d="m 13393.2,11692.8 c -224.6,45.4 -440.8,25.2 -610.8,-44.1 62,5.6 128.4,2.2 196.1,-11.5 266,-53.7 451.5,-246.1 414.4,-429.6 -37.2,-183.5 -282.8,-288.7 -548.7,-235 -201.4,40.7 -356.6,160.9 -404,296.6 -49.9,-312.7 267.9,-635.8 720.3,-727.3 460.5,-93.1 885.9,89.1 950.1,406.9 64.3,317.8 -256.9,650.9 -717.4,744"
         style="fill:#231f20;fill-opacity:1;fill-rule:nonzero;stroke:none"
         id="path16" />
      <path
         d="m 13359.2,11927.9 c -259.6,52.5 -508,17.5 -686.9,-79.9 178.9,143.3 471.9,204.9 781,142.4 460.5,-93.1 781.8,-426.2 717.5,-744 -28,-138.7 -351.1,588.5 -811.6,681.5"
         style="fill:#231f20;fill-opacity:1;fill-rule:nonzero;stroke:none"
         id="path18" />
      <path
         d="m 12777.7,10407.3 c -973.8,245.6 -1993.6,245.6 -2967.44,0 -1156.03,-291.6 -2566.01,-528.9 -2566.01,49 0,979.4 1813.14,2132.7 4049.75,2132.7 2236.6,0 4049.8,-1153.3 4049.8,-2132.7 0,-577.9 -1410,-340.6 -2566.1,-49 z m -1483.7,3930 c -1303.71,0 -2473.04,-575.2 -3268.11,-1485.7 -231.56,-265.2 -483.1,-512.2 -755.95,-734.7 -872.4,-711.3 -2081.96,-1517.6 -2901.25,-1330.1 0,0 1290.01,-535.2 1829.18,-131.8 0,0 -327.5,-571.2 -918.59,-718.9 0,0 900,-29.4 1727.29,723.8 -32.84,-215.2 -49.87,-435.6 -49.87,-659.9 0,-2664.9 2403.38,-4768.5 5160.9,-4261.5 1590.8,292.6 3145.4,1847.1 3437.9,3437.9 507,2757.5 -1596.6,5160.9 -4261.5,5160.9"
         style="fill:#231f20;fill-opacity:1;fill-rule:nonzero;stroke:none"
         id="path20" />
    </g>
  </g>
</svg>
