<?xml version="1.0" encoding="UTF-8" standalone="no"?>
<!-- Created with Inkscape (http://www.inkscape.org/) -->

<svg
   version="1.1"
   id="svg2"
   width="2666.6667"
   height="2666.6667"
   viewBox="0 0 2666.6667 2666.6667"
   sodipodi:docname="vecteezy_ninja-face-logo-vector_13044510.eps"
   xmlns:inkscape="http://www.inkscape.org/namespaces/inkscape"
   xmlns:sodipodi="http://sodipodi.sourceforge.net/DTD/sodipodi-0.dtd"
   xmlns="http://www.w3.org/2000/svg"
   xmlns:svg="http://www.w3.org/2000/svg">
  <defs
     id="defs6" />
  <sodipodi:namedview
     id="namedview4"
     pagecolor="#ffffff"
     bordercolor="#000000"
     borderopacity="0.25"
     inkscape:showpageshadow="2"
     inkscape:pageopacity="0.0"
     inkscape:pagecheckerboard="0"
     inkscape:deskcolor="#d1d1d1" />
  <g
     id="g8"
     inkscape:groupmode="layer"
     inkscape:label="ink_ext_XXXXXX"
     transform="matrix(1.3333333,0,0,-1.3333333,0,2666.6667)">
    <g
       id="g10"
       transform="scale(0.1)">
      <path
         d="m 12201.3,12876.4 c -79.9,154.3 -469.1,111.4 -869.3,-95.9 -400.1,-207.3 -659.7,-500.4 -579.8,-654.7 79.9,-154.3 469.1,-111.3 869.2,96 400.2,207.3 659.8,500.4 579.9,654.6"
         style="fill:#231f20;fill-opacity:1;fill-rule:nonzero;stroke:none"
         id="path12" />
      <path
         d="m 8594.26,12876.4 c 79.92,154.3 469.09,111.4 869.25,-95.9 400.15,-207.3 659.79,-500.4 579.89,-654.7 -79.97,-154.3 -469.14,-111.3 -869.3,96 -400.16,207.3 -659.76,500.4 -579.84,654.6"
         style="fill:#231f20;fill-opacity:1;fill-rule:nonzero;stroke:none"
         id="path14" />
      <path
         d="m 10385.5,13359.3 c 1574,0 2849.9,-384.2 2849.9,-858.2 0,-429.7 -1048.9,-785.7 -2417.8,-848.3 -81.1,52.7 -215.9,87.3 -368.7,87.3 -157.2,0 -295.5,-36.7 -375.7,-92 -1427.07,46.8 -2537.69,410.8 -2537.69,853 0,474 1275.97,858.2 2849.99,858.2 z m 0,-3626.5 c 1655.6,0 3022.4,1072.1 3227.5,2459.4 -53.3,360 -184.8,698.8 -379.3,1003.2 -1.9,-16.2 -612.3,731.3 -2848.2,731.3 -2495.71,0 -2846.33,-747.5 -2848.21,-731.3 C 7342.76,12891 7211.22,12552.2 7157.97,12192.2 7363,10804.9 8729.82,9732.8 10385.5,9732.8"
         style="fill:#231f20;fill-opacity:1;fill-rule:nonzero;stroke:none"
         id="path16" />
      <path
         d="m 10385.5,14083.9 c 1074.5,0 2010.1,-179 2495.7,-443.5 -597,617.9 -1493.4,1010.9 -2495.7,1010.9 -1002.35,0 -1898.78,-393 -2495.71,-1010.9 485.61,264.5 1421.18,443.5 2495.71,443.5"
         style="fill:#231f20;fill-opacity:1;fill-rule:nonzero;stroke:none"
         id="path18" />
      <path
         d="m 10385.5,9575.5 c -1686.8,0 -3073.79,1112.8 -3237.88,2537.9 -10.74,-93.3 -16.27,-187.9 -16.27,-283.7 0,-1558.3 1456.92,-2821.5 3254.15,-2821.5 1797.2,0 3254.1,1263.2 3254.1,2821.5 0,95.8 -5.5,190.4 -16.3,283.7 -164.1,-1425.1 -1551.1,-2537.9 -3237.8,-2537.9"
         style="fill:#231f20;fill-opacity:1;fill-rule:nonzero;stroke:none"
         id="path20" />
      <path
         d="m 10385.5,8747.6 c 465.1,0 907.5,84.6 1307.7,237.1 -514.4,239.9 -1088.2,373.9 -1693.2,373.9 -449.89,0 -882.47,-74.1 -1286.22,-210.7 488.59,-254.2 1060.45,-400.3 1671.72,-400.3"
         style="fill:#231f20;fill-opacity:1;fill-rule:nonzero;stroke:none"
         id="path22" />
      <path
         d="m 12233.8,8679.3 c -525,-314.7 -1161.8,-499.1 -1848.3,-499.1 -849.35,0 -1622.64,282.2 -2202.12,744.2 -1301.65,-662.6 -2193.3,-2015 -2193.3,-3575.7 h 8019.82 c 0,1387.7 -704.9,2610.7 -1776.1,3330.6"
         style="fill:#231f20;fill-opacity:1;fill-rule:nonzero;stroke:none"
         id="path24" />
      <path
         d="m 13365,12413.6 c 0,0 748.6,1226.8 3053.1,1784.9 0,0 -1366.5,-3029.8 -3053.1,-1784.9"
         style="fill:#231f20;fill-opacity:1;fill-rule:nonzero;stroke:none"
         id="path26" />
      <path
         d="m 13367.1,12542.8 c 0,0 -121.7,1323.4 1451.7,1810.2 0,0 -126.1,-2177.1 -1451.7,-1810.2"
         style="fill:#231f20;fill-opacity:1;fill-rule:nonzero;stroke:none"
         id="path28" />
    </g>
  </g>
</svg>
