<?xml version="1.0" encoding="UTF-8" standalone="no"?>
<!-- Created with Inkscape (http://www.inkscape.org/) -->

<svg
   version="1.1"
   id="svg2"
   width="441.1333"
   height="661.19202"
   viewBox="0 0 441.1333 661.192"
   xmlns="http://www.w3.org/2000/svg"
   xmlns:svg="http://www.w3.org/2000/svg">
  <defs
     id="defs6" />
  <g
     id="g8"
     transform="matrix(1.3333333,0,0,-1.3333333,-4181.7998,2216.0587)">
    <g
       id="g10"
       transform="scale(0.1)">
      <path
         d="m 34327.8,12421.3 c -17.5,-288.7 -34.4,-550.3 -48.3,-759.8 h -2494 c -15,63.4 -30.6,129.3 -46.9,197.9 -39.8,167.9 -74.9,336.5 -106,504 -303.6,1640 -211.8,3188.5 -211.8,3188.5 l 1056.3,104.8 c 0,0 1705.8,248.4 1897.1,76.9 123.8,-110.8 33.1,-1995.2 -46.4,-3312.3"
         style="fill:#6b2f2b;fill-opacity:1;fill-rule:nonzero;stroke:none"
         id="path14" />
      <path
         d="m 34173.4,11859.4 h -2319.2 l 281.6,281.6 c 160.4,160.4 253.9,369.9 266.3,594.6 1,17.2 1.5,34.6 1.5,51.9 v 148.1 c 185.2,-109.2 379.9,-164 574.3,-164 220.9,0 441.3,70.7 646.2,211.9 v -196 c 0,-244.2 95.1,-473.8 267.8,-646.5 l 281.5,-281.6"
         style="fill:#f3aa85;fill-opacity:1;fill-rule:nonzero;stroke:none"
         id="path16" />
      <path
         d="m 31762.9,14580.9 c 14.3,-59.4 -19,-119.9 -76.8,-139.7 -111.4,-38.1 -135,-84.7 -105.3,-207.9 12.4,-51.4 32.8,-106 60.6,-162 28.9,-58.2 60.7,-117.4 91.5,-174.5 41.7,-77.4 84.8,-157.5 123.2,-240 162.3,-348.4 320.5,-567.9 528.9,-734.2 378.9,-302.3 809.7,-301.9 1182.1,1 192.1,156.4 346.8,366.3 486.6,660.8 14.1,29.5 27.7,59.2 41.4,88.8 50.1,108.4 101.9,220.5 169.6,327.3 33.3,52.6 61.9,117.3 87.5,197.8 44.1,138.9 27,184.9 -96,258.9 -41.3,24.8 -63.4,72.2 -56,119.8 32.5,206.7 59.2,429.2 34.7,655.7 -51.3,474.3 -281.5,780.6 -703.8,936.4 -164.7,60.8 -334.6,91.1 -513.4,91.1 -120.4,0 -244.9,-13.8 -374.5,-41.2 -255.2,-54.1 -443.9,-144.4 -593.8,-284.4 -207.2,-193.5 -313.6,-445.7 -334.8,-793.8 -11.6,-190.6 4.6,-379 48.3,-559.9"
         style="fill:#f3aa85;fill-opacity:1;fill-rule:nonzero;stroke:none"
         id="path18" />
      <path
         d="m 34214.6,14499.7 c 20.7,147.9 35.1,302.6 27.8,460.2 -5.7,-131.5 -22.9,-260 -42.2,-382.9 -4.2,-27.2 1.2,-54.4 14.4,-77.3"
         style="fill:#f3aa85;fill-opacity:1;fill-rule:nonzero;stroke:none"
         id="path20" />
      <path
         d="m 31762.9,14580.9 c -27.9,115.6 -44.5,234.2 -49.9,354.5 -6.8,-152.1 4.2,-302.5 32.7,-448.8 18.1,26.8 25.2,60.7 17.2,94.3"
         style="fill:#f3aa85;fill-opacity:1;fill-rule:nonzero;stroke:none"
         id="path22" />
      <path
         d="m 32977.8,12522.5 c -195.3,0 -391.4,71.1 -575.7,213.1 1,17.2 1.5,34.6 1.5,51.9 v 120.5 c 183.8,-141.2 379.4,-211.9 574.2,-211.9 201.8,0 402.8,75.8 589.3,227.5 v 0 0 c 1.1,0.9 2.3,1.9 3.5,2.8 0,0.1 0.1,0.2 0.2,0.2 18.1,14.8 35.8,30.2 53.3,46 V 12799 c -18.7,-16.9 -37.7,-33.2 -57,-49 -186.4,-151.6 -387.5,-227.4 -589.3,-227.5"
         style="fill:#cc8f70;fill-opacity:1;fill-rule:nonzero;stroke:none"
         id="path24" />
      <path
         d="m 32977.8,12696.1 c -194.8,0 -390.4,70.7 -574.2,211.9 v 0.1 c 183.8,-141.3 379.4,-211.9 574.2,-212 201.9,0 402.8,75.8 589.3,227.5 -186.5,-151.7 -387.5,-227.5 -589.3,-227.5 m 589.3,227.5 c 1.1,0.9 2.3,1.9 3.5,2.8 -1.2,-0.9 -2.4,-1.9 -3.5,-2.8 m 3.7,3 c 18.1,14.8 35.8,30.2 53.3,46 v 0 0 c -17.5,-15.8 -35.2,-31.2 -53.3,-46"
         style="fill:#cc8f70;fill-opacity:1;fill-rule:nonzero;stroke:none"
         id="path26" />
      <path
         d="m 32818,16619.7 c 0,0 -602,40.6 -999.6,-479.5 0,0 -363.5,-236.2 -397.6,-588.3 -28.2,-291.3 145.8,-905.1 206.7,-1108.5 2.4,-8 5.8,-15.5 10,-22.4 13.9,7.2 66.6,30.1 85.3,36.5 57.8,19.8 95.6,412.6 95.6,412.6 0,222.9 100.6,433.8 273.8,574.1 v 0 c 131.5,106.4 295.6,164.5 464.7,164.5 H 33611 c 232.6,0 439.8,-147 516.7,-366.6 20.3,-58.1 30.7,-119.2 30.7,-180.8 0,0 28.2,-568.9 69.5,-593.7 37.4,-22.5 93.2,-52.8 112.3,-73.5 20.8,17.8 34.1,44.3 34.1,73.9 v 1265.7 c 0,0 -215.9,783.7 -1556.3,886"
         style="fill:#6b2f2b;fill-opacity:1;fill-rule:nonzero;stroke:none"
         id="path28" />
      <path
         d="m 32402.1,15592.3 c 0,0 821.9,-506.3 1842.2,-524.7 l 27,470.7 -743.9,551.9 -1125.3,-108 -482.4,-273.6 482.4,-116.3"
         style="fill:#6b2f2b;fill-opacity:1;fill-rule:nonzero;stroke:none"
         id="path30" />
      <path
         d="m 34672,11806.4 v -144.9 h -3308.5 v 144.9 c 0,215.7 101.8,413.5 269.1,557 133.2,114.5 308,194.4 506,221.5 46.6,6.3 93.6,9.5 140.7,9.5 h 103 c -0.5,-10.9 -0.8,-21.9 -0.8,-32.9 0,-351.4 284.8,-636.3 636.3,-636.3 351.4,0 636.2,284.9 636.2,636.3 0,11 -0.3,22 -0.8,32.9 h 103.1 c 47,0 94,-3.2 140.6,-9.5 162.7,-22.3 309.7,-80.2 430.9,-163.6 211.5,-145.5 344.2,-368.6 344.2,-614.9"
         style="fill:#1d1d1b;fill-opacity:1;fill-rule:nonzero;stroke:none"
         id="path32" />
    </g>
  </g>
</svg>
