<?xml version="1.0" encoding="UTF-8" standalone="no"?>
<!-- Created with Inkscape (http://www.inkscape.org/) -->

<svg
   version="1.1"
   id="svg2"
   width="584.33252"
   height="657.4903"
   viewBox="0 0 584.33252 657.49028"
   xmlns="http://www.w3.org/2000/svg"
   xmlns:svg="http://www.w3.org/2000/svg">
  <defs
     id="defs6" />
  <g
     id="g8"
     transform="matrix(1.3333333,0,0,-1.3333333,-7329.1733,2212.357)">
    <g
       id="g10"
       transform="scale(0.1)">
      <path
         d="m 56389,11844.8 h 2148.8 l -260.9,260.9 c -148.6,148.7 -235.2,342.7 -246.8,551 -0.9,15.9 -1.3,32 -1.3,48.1 v 137.2 c -171.7,-101.2 -352.1,-152 -532.1,-152 -204.7,0.1 -408.9,65.6 -598.7,196.3 v -181.5 c 0,-226.3 -88.1,-439.1 -248.2,-599.1 l -260.8,-260.9"
         style="fill:#975525;fill-opacity:1;fill-rule:nonzero;stroke:none"
         id="path1614" />
      <path
         d="m 58622.4,14366.4 c -13.2,-55.1 17.6,-111.1 71.1,-129.5 103.2,-35.3 125.1,-78.5 97.5,-192.6 -11.4,-47.6 -30.3,-98.2 -56.1,-150.1 -26.7,-53.9 -56.2,-108.7 -84.7,-161.7 -38.6,-71.7 -78.6,-145.9 -114.2,-222.3 -150.3,-322.8 -296.9,-526.2 -490,-680.2 -351,-280.2 -750.2,-279.8 -1095.2,0.8 -178.1,144.9 -321.3,339.5 -450.9,612.3 -13,27.3 -25.7,54.8 -38.4,82.3 -46.4,100.4 -94.4,204.2 -157.1,303.2 -30.8,48.8 -57.3,108.7 -81,183.3 -40.9,128.7 -25.1,171.3 88.9,239.9 38.3,23 58.8,66.9 51.8,111 -30,191.5 -54.7,397.6 -32,607.5 47.4,439.4 260.7,723.2 652,867.6 152.6,56.3 310,84.4 475.7,84.4 111.6,0 226.9,-12.8 347,-38.2 236.4,-50.1 411.3,-133.8 550.2,-263.5 192,-179.3 290.5,-413 310.1,-735.4 10.7,-176.6 -4.3,-351.2 -44.7,-518.8"
         style="fill:#975525;fill-opacity:1;fill-rule:nonzero;stroke:none"
         id="path1616" />
      <path
         d="m 57496.7,12459.3 c -187,0 -373.2,70.2 -545.9,210.7 -18,14.6 -35.6,29.7 -52.8,45.4 v 160.8 c 17.2,-15.6 34.8,-30.8 52.8,-45.4 v 0 0 c 172.7,-140.4 359,-210.7 546,-210.7 180.4,0 361.6,65.4 532,196.3 v -111.6 0 c 0,-16.1 0.4,-32.2 1.3,-48.1 -170.7,-131.6 -352.4,-197.4 -533.4,-197.4"
         style="fill:#7f471f;fill-opacity:1;fill-rule:nonzero;stroke:none"
         id="path1618" />
      <path
         d="m 57496.8,12620.1 c -187,0 -373.3,70.3 -546,210.7 172.7,-140.4 358.9,-210.7 545.9,-210.7 180.5,0 361.7,65.5 532.1,196.4 v -0.1 0 c -170.4,-130.9 -351.6,-196.3 -532,-196.3 m -546,210.7 c -18,14.6 -35.6,29.8 -52.8,45.4 v 0.1 c 17.2,-15.7 34.8,-30.9 52.8,-45.5"
         style="fill:#7f471f;fill-opacity:1;fill-rule:nonzero;stroke:none"
         id="path1620" />
      <path
         d="m 55927,11795.8 v -134.3 h 3065.4 v 134.3 c 0,199.8 -94.3,383.1 -249.3,516 -123.4,106.1 -285.3,180.1 -468.8,205.2 -43.2,5.9 -86.8,8.9 -130.4,8.9 h -95.4 c 0.5,-10.2 0.8,-20.3 0.8,-30.6 0,-325.6 -264,-589.5 -589.6,-589.5 -325.6,0 -589.5,263.9 -589.5,589.5 0,10.3 0.3,20.4 0.8,30.6 h -95.5 c -43.6,0 -87.1,-3 -130.3,-8.9 -150.7,-20.6 -286.9,-74.2 -399.2,-151.6 -196,-134.7 -319,-341.4 -319,-569.6"
         style="fill:#ef2525;fill-opacity:1;fill-rule:nonzero;stroke:none"
         id="path1622" />
      <path
         d="m 56870.2,12495.3 c 0,10.3 0.3,20.4 0.8,30.6 h -95.5 c -43.6,0 -87.1,-3 -130.3,-8.9 -136.1,-18.6 -260.3,-64.2 -365.8,-129.8 7.3,15.7 15.1,31.3 23.3,46.7 145.1,270.8 209.8,617.9 235.9,931.1 106,-206.3 222.3,-364.3 359.4,-488.5 v -171.7 c 0,-73.7 -9.5,-146 -27.6,-215.4 -0.1,2 -0.2,3.9 -0.2,5.9"
         style="fill:#000000;fill-opacity:1;fill-rule:nonzero;stroke:none"
         id="path1624" />
      <path
         d="m 55208.8,12433.9 c -137.9,512.4 -147.2,855.9 51.7,1284.2 133.5,287.6 194.1,515.7 225.5,831.3 36,362.8 128.3,856.7 360.6,1265.7 207.1,364.8 525.6,662.1 1014.7,738.6 1489.7,232.6 1443.1,-651.8 1443.1,-651.8 0,0 645.2,-13.4 832.4,-734.9 38.5,-148.3 57.6,-326.6 47.8,-540.7 -11.3,-247.9 19.4,-495.9 86.6,-734.7 88.7,-315.1 152.6,-768.3 -84.1,-1062 -216.6,-268.7 -159.5,-770.7 -64.2,-1168.1 h -130.5 v 134.3 c 0,199.8 -94.3,383.1 -249.3,516 -123.4,106.1 -285.3,180.1 -468.8,205.2 -43.2,5.9 -86.8,8.9 -130.4,8.9 h -95.4 c 0,-1.2 0,-2.4 0.1,-3.5 -9.6,43.9 -15.9,88.7 -18.5,134.3 -0.9,15.9 -1.3,32 -1.3,48.1 v 111.7 c 5.7,4.4 11.5,8.9 17.2,13.5 193.1,154 339.7,357.4 490,680.2 35.6,76.4 75.6,150.6 114.2,222.3 28.5,53 58,107.8 84.7,161.7 25.8,51.9 44.7,102.5 56.2,150.1 27.5,114.1 5.6,157.3 -97.6,192.6 -44.5,15.3 -73.2,56.7 -74,101.8 l 7.1,45.6 c 0.8,3.7 1.7,7.4 2.5,11 h -0.8 l 36,231.7 c -17.5,142.2 -61.9,277.3 -128.5,399.2 -68.3,125.1 -197.3,205.1 -339.8,210.6 l -1.4,0.1 c -390.4,15 -449.6,85.3 -696.2,92.5 -35.6,1 -70.3,0.6 -104,-1.1 -97.2,-5 -180.6,-70.3 -210,-163 -50.5,-159.9 -126.7,-344.4 -243.3,-535.1 -94.1,-153.8 -190.8,-311.6 -295.2,-409 -76.6,-71.4 -121,-170.8 -119.7,-275.5 3.1,-248.6 4.3,-564.8 12.4,-580.6 -26.1,-313.3 -90.8,-660.4 -235.9,-931.2 -125,-233.4 -145.5,-511.5 -120.4,-772.4 h -1213.5 c 173.1,299.2 357.2,336.9 240,772.4"
         style="fill:#232322;fill-opacity:1;fill-rule:nonzero;stroke:none"
         id="path1626" />
    </g>
  </g>
</svg>
