<?xml version="1.0" encoding="UTF-8" standalone="no"?>
<!-- Created with Inkscape (http://www.inkscape.org/) -->

<svg
   version="1.1"
   id="svg2"
   width="446.67847"
   height="651.57349"
   viewBox="0 0 446.67847 651.57347"
   xmlns="http://www.w3.org/2000/svg"
   xmlns:svg="http://www.w3.org/2000/svg">
  <defs
     id="defs6" />
  <g
     id="g8"
     transform="matrix(1.3333333,0,0,-1.3333333,-2569.5474,980.49333)">
    <g
       id="g10"
       transform="scale(0.1)">
      <path
         d="m 22078.6,2653.3 h -2184.5 l 265.2,265.2 c 151.1,151.1 239.2,348.4 250.9,560.1 0.9,16.2 1.4,32.6 1.4,48.9 V 3667 c 174.5,-102.8 357.9,-154.5 540.9,-154.5 208.1,0.1 415.7,66.7 608.7,199.6 v -184.6 c 0,-230 89.5,-446.3 252.3,-609 l 265.1,-265.2"
         style="fill:#f3aa85;fill-opacity:1;fill-rule:nonzero;stroke:none"
         id="path3192" />
      <path
         d="m 19808.1,5216.7 c 13.4,-55.9 -17.9,-112.9 -72.4,-131.6 -104.9,-35.8 -127.1,-79.7 -99.1,-195.8 11.7,-48.4 30.9,-99.8 57.1,-152.6 27.1,-54.8 57.1,-110.5 86.1,-164.3 39.3,-72.9 79.9,-148.4 116.1,-226.1 152.9,-328.1 301.9,-534.9 498.1,-691.5 356.9,-284.8 762.7,-284.4 1113.5,0.9 181,147.3 326.6,345.1 458.4,622.5 13.2,27.7 26.1,55.7 39,83.6 47.2,102.1 96,207.6 159.7,308.3 31.4,49.5 58.3,110.5 82.4,186.3 41.5,130.9 25.5,174.1 -90.4,243.9 -38.9,23.3 -59.8,68 -52.7,112.8 30.5,194.7 55.7,404.2 32.6,617.6 -48.2,446.7 -265.1,735.2 -662.9,882.1 -155.1,57.2 -315.2,85.7 -483.6,85.7 -113.4,0 -230.7,-12.9 -352.7,-38.8 -240.4,-50.9 -418.1,-136 -559.4,-267.9 -195.1,-182.3 -295.3,-419.8 -315.3,-747.6 -10.9,-179.5 4.4,-357 45.5,-527.5"
         style="fill:#f3aa85;fill-opacity:1;fill-rule:nonzero;stroke:none"
         id="path3194" />
      <path
         d="m 20952.5,3278 c -184,0 -368.7,66.8 -542.3,200.6 0.9,16.2 1.4,32.6 1.4,48.9 v 113.6 c 173.1,-133.1 357.4,-199.6 540.8,-199.6 190.2,-0.1 379.5,71.4 555.1,214.2 v 0 0 c 1.1,0.9 2.1,1.8 3.2,2.6 0.1,0.1 0.2,0.2 0.3,0.3 17,13.9 33.8,28.4 50.2,43.2 v -163.4 c -17.6,-16 -35.5,-31.4 -53.7,-46.2 -175.6,-142.8 -364.9,-214.2 -555,-214.2"
         style="fill:#cc8f70;fill-opacity:1;fill-rule:nonzero;stroke:none"
         id="path3196" />
      <path
         d="m 20952.4,3441.5 c -183.4,0 -367.7,66.5 -540.8,199.6 v 0 c 173.1,-133.1 357.4,-199.6 540.8,-199.6 190.2,0 379.5,71.4 555.1,214.2 -175.6,-142.8 -364.9,-214.3 -555.1,-214.2 m 555.1,214.2 c 1.1,0.9 2.1,1.8 3.2,2.6 -1.1,-0.8 -2.1,-1.7 -3.2,-2.6 m 3.5,2.9 c 17,13.9 33.8,28.4 50.2,43.3 v -0.1 0 c -16.4,-14.8 -33.2,-29.3 -50.2,-43.2"
         style="fill:#cc8f70;fill-opacity:1;fill-rule:nonzero;stroke:none"
         id="path3198" />
      <path
         d="m 22548.3,2603.4 v -136.5 h -3116.4 v 136.5 c 0,203.1 95.9,389.5 253.4,524.7 125.6,107.8 290.2,183.1 476.7,208.6 43.9,5.9 88.2,9 132.5,9 h 97 c -0.5,-10.3 -0.8,-20.7 -0.8,-31.1 0,-331 268.4,-599.3 599.4,-599.3 331,0 599.3,268.3 599.3,599.3 0,10.4 -0.3,20.8 -0.8,31.1 h 97.1 c 44.3,0 88.6,-3.1 132.5,-9 153.2,-21 291.7,-75.5 405.8,-154.1 199.2,-137.1 324.3,-347.2 324.3,-579.2"
         style="fill:#ef2525;fill-opacity:1;fill-rule:nonzero;stroke:none"
         id="path3200" />
      <path
         d="m 20946.7,7353.7 v 0 c -981.7,0 -1753,-949.1 -1668.8,-2053.8 l 221.6,-2408.8 c 43.7,89 107.1,169.4 185.8,237 125.6,107.8 290.2,183.1 476.7,208.6 43.9,5.9 88.2,9 132.5,9 h 97 c 0,-1.2 0,-2.4 -0.1,-3.6 9.8,44.6 16.2,90.2 18.8,136.5 0.9,16.2 1.4,32.6 1.4,48.9 v 113.8 c -5.9,4.5 -11.7,8.9 -17.6,13.5 -196.2,156.6 -345.2,363.4 -498.1,691.5 -36.2,77.7 -76.8,153.2 -116.1,226.1 -29,53.8 -59,109.5 -86.1,164.3 -26.2,52.8 -45.4,104.2 -57.1,152.6 -28,116.1 -5.8,160 99.2,195.8 54.4,18.7 85.7,75.7 72.3,131.6 -41.1,170.5 -56.4,347.9 -45.5,527.5 1,15.2 2.1,30.1 3.4,44.9 h 2374.4 c 15.9,-199 -8,-394 -36.5,-576 -7.1,-44.8 13.8,-89.5 52.7,-112.8 115.9,-69.8 131.9,-113 90.4,-243.9 -24.1,-75.8 -51,-136.8 -82.4,-186.3 -63.7,-100.7 -112.5,-206.2 -159.7,-308.3 -12.9,-27.9 -25.8,-55.9 -39,-83.6 -118.4,-249.4 -248.2,-434.3 -404.7,-576.1 v -174.6 c 0,-75 9.6,-148.5 28,-219.2 0.1,2.1 0.2,4.2 0.2,6.3 0,10.4 -0.3,20.8 -0.8,31.1 h 97.1 c 44.3,0 88.6,-3.1 132.5,-9 153.2,-21 291.7,-75.5 405.8,-154.1 86.6,-59.6 159.2,-133.1 213.6,-216.1 l 177.8,2333.4 c 84.2,1104.7 -687,2053.8 -1668.7,2053.8"
         style="fill:#592800;fill-opacity:1;fill-rule:nonzero;stroke:none"
         id="path3202" />
    </g>
  </g>
</svg>
