<?xml version="1.0" encoding="UTF-8" standalone="no"?>
<!-- Created with Inkscape (http://www.inkscape.org/) -->

<svg
   version="1.1"
   id="svg2"
   width="586.67969"
   height="761.7085"
   viewBox="0 0 586.67969 761.70848"
   xmlns="http://www.w3.org/2000/svg"
   xmlns:svg="http://www.w3.org/2000/svg">
  <defs
     id="defs6" />
  <g
     id="g8"
     transform="matrix(1.3333333,0,0,-1.3333333,-4913.7734,1090.6283)">
    <g
       id="g10"
       transform="scale(0.1)">
      <path
         d="m 41253.4,2466.9 h -4400.1 v 578.6 c 0,294 266.8,545.6 633.2,597.2 v 0 c 1036.4,145.9 2097.3,145.9 3133.7,0 v 0 c 366.4,-51.6 633.2,-303.2 633.2,-597.2 v -578.6"
         style="fill:#036554;fill-opacity:1;fill-rule:nonzero;stroke:none"
         id="path1656" />
      <path
         d="m 40572.1,6157 c -53.3,307.2 -205.1,197.1 -205.1,197.1 l 1.5,39.2 c 30.5,753.9 -561.3,1387 -1315.2,1407.9 -753.9,-20.9 -1345.6,-654 -1315.2,-1407.9 l 1.6,-39.2 c 0,0 -151.8,110.1 -205.2,-197.1 -37.4,-215.3 60.6,-337.1 165.1,-454.7 81.2,-91.2 144.4,-197.5 182,-313.7 128.9,-399.2 354.3,-659 503.9,-796.9 84.2,-77.6 194.7,-120.2 309.3,-120.2 h 358.5 358.6 c 114.6,0 225.1,42.6 309.3,120.2 149.6,137.9 375,397.7 503.9,796.9 37.6,116.2 100.8,222.5 182,313.7 104.5,117.6 202.5,239.4 165,454.7"
         style="fill:#f3aa85;fill-opacity:1;fill-rule:nonzero;stroke:none"
         id="path1658" />
      <path
         d="m 39658.1,4391.3 c -10.2,45.7 -16.9,92.5 -19.7,139.9 v 0.1 c -68.5,-39 -146.5,-59.8 -226.5,-59.8 h -358.6 -358.5 c -80,0 -158,20.8 -226.5,59.8 h -0.1 c -2.8,-47.5 -9.4,-94.3 -19.6,-140 -35.9,-159.7 -116.2,-306.4 -234.8,-425 L 37944.6,3697 c 692.1,-372.9 1525.4,-372.9 2217.5,0 l -269.2,269.3 c -118.7,118.6 -198.9,265.3 -234.8,425"
         style="fill:#f3aa85;fill-opacity:1;fill-rule:nonzero;stroke:none"
         id="path1660" />
      <path
         d="m 39411.9,4319.6 h -717.1 c -87.8,0 -173.2,25 -246.2,71.7 10.2,45.7 16.8,92.5 19.7,140 68.4,-39.1 146.4,-59.9 226.5,-59.9 h 717.1 c 80.1,0 158.1,20.8 226.5,59.8 2.8,-47.4 9.5,-94.2 19.7,-139.9 -73,-46.7 -158.4,-71.7 -246.2,-71.7"
         style="fill:#cc8f70;fill-opacity:1;fill-rule:nonzero;stroke:none"
         id="path1662" />
      <path
         d="m 37840.6,5853.6 c 124.5,132.5 190.1,481.8 273.5,1328.6 l 1431.9,-76.1 c 204.7,-21.7 376.3,-165.4 435.1,-364.2 l 233,-787.5 c 12.9,-43.6 75.1,-40.9 84.2,3.7 55.4,274.2 151.9,836 119.6,1291.6 -39.6,559.8 -1352.3,1404.8 -2377.6,596.6 C 37812,7666.4 37686,7384.7 37701.5,7093 l 64.1,-1211.7 c 2,-38.5 48.7,-55.7 75,-27.7"
         style="fill:#543821;fill-opacity:1;fill-rule:nonzero;stroke:none"
         id="path1664" />
    </g>
  </g>
</svg>
