<?xml version="1.0" encoding="UTF-8" standalone="no"?>
<!-- Created with Inkscape (http://www.inkscape.org/) -->

<svg
   version="1.1"
   id="svg2"
   width="612.66071"
   height="689.3606"
   viewBox="0 0 612.66071 689.36058"
   xmlns="http://www.w3.org/2000/svg"
   xmlns:svg="http://www.w3.org/2000/svg">
  <defs
     id="defs6" />
  <g
     id="g8"
     transform="matrix(1.3333333,0,0,-1.3333333,-877.07257,2244.2272)">
    <g
       id="g10"
       transform="scale(0.1)">
      <path
         d="M 9683.97,11853.7 H 7431.03 l 273.49,273.6 c 155.82,155.8 246.65,359.3 258.73,577.6 0.97,16.7 1.44,33.6 1.44,50.5 v 143.8 c 179.94,-106.1 369.09,-159.3 557.89,-159.3 214.61,0 428.69,68.7 627.73,205.8 v -190.3 c 0,-237.3 92.36,-460.4 260.16,-628.1 l 273.5,-273.6"
         style="fill:#f3aa85;fill-opacity:1;fill-rule:nonzero;stroke:none"
         id="path58" />
      <path
         d="m 7342.26,14497.5 c 13.88,-57.7 -18.42,-116.5 -74.58,-135.8 -108.19,-36.9 -131.13,-82.2 -102.23,-201.9 12.04,-49.9 31.83,-102.9 58.84,-157.4 28.03,-56.5 58.92,-114 88.86,-169.5 40.48,-75.2 82.39,-153 119.73,-233.1 157.62,-338.4 311.29,-551.7 513.71,-713.2 368.06,-293.7 786.59,-293.4 1148.32,0.9 186.69,151.9 336.91,355.9 472.78,642 13.63,28.6 26.89,57.4 40.21,86.2 48.65,105.3 99,214.2 164.73,318 32.34,51.1 60.11,113.9 84.96,192.1 42.83,135 26.28,179.6 -93.25,251.5 -40.11,24.1 -61.6,70.2 -54.36,116.4 31.53,200.8 57.45,416.9 33.65,637 -49.74,460.7 -273.4,758.2 -683.69,909.6 -159.93,59.1 -325.02,88.5 -498.69,88.5 -116.99,0 -237.91,-13.4 -363.81,-40 -247.92,-52.5 -431.22,-140.3 -576.85,-276.3 -201.29,-188 -304.62,-433 -325.18,-771.1 -11.27,-185.1 4.48,-368.2 46.85,-543.9"
         style="fill:#f3aa85;fill-opacity:1;fill-rule:nonzero;stroke:none"
         id="path60" />
      <path
         d="m 8522.51,12497.9 c -189.78,0 -380.22,69 -559.26,207 0.97,16.7 1.44,33.6 1.44,50.5 v 117 c 178.59,-137.2 368.56,-205.8 557.79,-205.8 196.08,0 391.36,73.6 572.43,220.9 v 0 0 c 1.16,1 2.32,1.9 3.48,2.9 0.03,0 0.05,0 0.07,0 3.52,2.9 7.01,5.8 10.5,8.7 0,0 0,0 0.01,0 2.3,1.9 4.59,3.9 6.88,5.8 0.05,0 0.1,0.1 0.15,0.1 1.13,1 2.25,1.9 3.38,2.9 0.03,0 0.05,0.1 0.07,0.1 10.4,8.8 20.69,17.9 30.86,27.1 v -168.6 c -18.1,-16.4 -36.58,-32.3 -55.4,-47.6 -181.03,-147.3 -376.36,-220.9 -572.4,-221"
         style="fill:#cc8f70;fill-opacity:1;fill-rule:nonzero;stroke:none"
         id="path62" />
      <path
         d="m 8522.48,12666.6 c -189.23,0 -379.2,68.6 -557.79,205.8 v 0.1 c 178.58,-137.3 368.58,-205.9 557.8,-205.9 196.09,0 391.33,73.6 572.42,220.9 -181.07,-147.3 -376.35,-220.9 -572.43,-220.9 m 572.43,220.9 c 1.16,1 2.32,1.9 3.48,2.9 -1.16,-1 -2.32,-1.9 -3.48,-2.9 m 3.55,2.9 c 3.51,2.9 7.01,5.8 10.5,8.7 -3.49,-2.9 -6.98,-5.8 -10.5,-8.7 m 10.51,8.7 c 2.3,1.9 4.59,3.9 6.88,5.8 -2.29,-1.9 -4.58,-3.9 -6.88,-5.8 m 7.03,5.9 c 1.13,1 2.26,1.9 3.38,2.9 -1.13,-1 -2.25,-1.9 -3.38,-2.9 m 3.45,3 c 10.4,8.9 20.69,17.9 30.86,27.1 v 0 0 c -10.17,-9.2 -20.46,-18.3 -30.86,-27.1"
         style="fill:#cc8f70;fill-opacity:1;fill-rule:nonzero;stroke:none"
         id="path64" />
      <path
         d="m 10168.3,11802.3 v -140.8 H 6954.34 v 140.8 c 0,209.5 98.9,401.6 261.36,541.1 129.44,111.2 299.2,188.8 491.54,215.1 45.31,6.2 90.98,9.3 136.7,9.3 h 100.07 c -0.51,-10.6 -0.82,-21.3 -0.82,-32 0,-341.4 276.73,-618.1 618.11,-618.1 341.38,0 618.11,276.7 618.11,618.1 0,10.7 -0.31,21.4 -0.82,32 h 100.13 c 45.71,0 91.33,-3.1 136.64,-9.3 157.99,-21.6 300.8,-77.9 418.52,-158.9 205.42,-141.3 334.42,-358.1 334.42,-597.3"
         style="fill:#07618e;fill-opacity:1;fill-rule:nonzero;stroke:none"
         id="path66" />
      <path
         d="m 9179.41,12535.8 c 0,10.7 -0.31,21.4 -0.82,32 h 100.13 c 45.71,0 91.33,-3.1 136.64,-9.3 142.66,-19.5 272.87,-67.4 383.48,-136.1 -7.69,16.5 -15.82,32.8 -24.46,48.9 -152.07,283.9 -219.91,647.8 -247.26,976.3 -111.22,-216.3 -233.08,-382 -376.82,-512.2 v -180 c 0,-77.3 9.92,-153.1 28.95,-225.9 0.02,2.1 0.16,4.2 0.16,6.3"
         style="fill:#2d1401;fill-opacity:1;fill-rule:nonzero;stroke:none"
         id="path68" />
      <path
         d="m 10921.3,12471.3 c 144.6,537.2 154.4,897.4 -54.1,1346.5 -140,301.5 -203.6,540.7 -236.5,871.5 -37.7,380.5 -134.6,898.3 -378,1327.1 -217.2,382.6 -551.14,694.3 -1063.99,774.4 -1561.83,244 -1513.06,-683.3 -1513.06,-683.3 0,0 -676.45,-14.1 -872.72,-770.6 -40.35,-155.5 -60.41,-342.4 -50.13,-566.9 11.9,-260 -20.29,-519.9 -90.8,-770.4 -93.01,-330.3 -159.94,-805.5 88.21,-1113.3 227.11,-281.8 167.23,-808.1 67.31,-1224.8 h 136.82 v 140.8 c 0,209.5 98.9,401.6 261.36,541.1 129.44,111.2 299.2,188.8 491.54,215.1 45.31,6.2 90.98,9.3 136.7,9.3 h 100.07 c -0.05,-1.2 -0.04,-2.5 -0.09,-3.7 10.05,46 16.68,93 19.33,140.8 0.98,16.7 1.44,33.6 1.44,50.5 v 117.1 c -6.05,4.6 -12.09,9.3 -18.1,14.1 -202.42,161.5 -356.09,374.8 -513.71,713.2 -37.34,80.1 -79.25,157.9 -119.73,233.1 -29.93,55.6 -60.84,113 -88.87,169.5 -26.99,54.5 -46.79,107.5 -58.83,157.4 -28.9,119.7 -5.96,165 102.24,201.9 46.72,16 76.81,59.4 77.66,106.8 l -7.45,47.8 c -0.87,3.9 -1.8,7.7 -2.66,11.5 h 0.88 l -37.79,243 c 18.32,149.1 64.9,290.6 134.72,418.5 71.65,131.1 206.94,215.1 356.31,220.8 l 1.49,0.1 c 409.28,15.8 471.41,89.5 729.92,97 37.32,1.1 73.66,0.6 109.06,-1.2 101.87,-5.2 189.37,-73.7 220.12,-170.9 53,-167.7 132.84,-361.1 255.15,-561 98.69,-161.3 199.98,-326.7 309.51,-428.8 80.33,-74.9 126.85,-179.1 125.49,-288.9 -3.22,-260.7 -4.49,-592.2 -12.98,-608.7 27.34,-328.5 95.17,-692.4 247.26,-976.4 131.09,-244.6 152.62,-536.2 126.29,-809.8 H 11173 c -181.5,313.7 -374.6,353.2 -251.7,809.8"
         style="fill:#592800;fill-opacity:1;fill-rule:nonzero;stroke:none"
         id="path70" />
    </g>
  </g>
</svg>
