<?xml version="1.0" encoding="UTF-8" standalone="no"?>
<!-- Created with Inkscape (http://www.inkscape.org/) -->

<svg
   version="1.1"
   id="svg2"
   width="444.94775"
   height="636.44037"
   viewBox="0 0 444.94775 636.44036"
   xmlns="http://www.w3.org/2000/svg"
   xmlns:svg="http://www.w3.org/2000/svg">
  <defs
     id="defs6" />
  <g
     id="g8"
     transform="matrix(1.3333333,0,0,-1.3333333,-5789.3853,2191.307)">
    <g
       id="g10"
       transform="scale(0.1)">
      <path
         d="m 46290.9,11846.7 h -2170.3 l 263.5,263.5 c 150.1,150.1 237.6,346.1 249.2,556.4 1,16.1 1.4,32.4 1.4,48.6 v 138.6 c 173.4,-102.2 355.6,-153.5 537.4,-153.5 206.8,0.1 413,66.2 604.7,198.3 v -183.4 c 0,-228.5 89,-443.4 250.7,-605 l 263.4,-263.5"
         style="fill:#f3aa85;fill-opacity:1;fill-rule:nonzero;stroke:none"
         id="path1598" />
      <path
         d="m 44035.1,14393.4 c 13.4,-55.6 -17.7,-112.2 -71.8,-130.7 -104.2,-35.7 -126.3,-79.3 -98.5,-194.6 11.6,-48.1 30.7,-99.1 56.7,-151.6 27,-54.4 56.8,-109.8 85.6,-163.3 39,-72.4 79.4,-147.4 115.3,-224.5 151.9,-326 299.9,-531.5 494.9,-687.1 354.5,-282.9 757.7,-282.5 1106.2,0.9 179.8,146.4 324.5,342.9 455.4,618.4 13.1,27.6 25.9,55.4 38.7,83.1 46.9,101.4 95.4,206.3 158.7,306.3 31.2,49.2 57.9,109.8 81.8,185.1 41.3,130 25.4,173 -89.8,242.3 -38.6,23.2 -59.3,67.5 -52.3,112.1 30.3,193.4 55.3,401.5 32.4,613.6 -47.9,443.8 -263.4,730.4 -658.6,876.3 -154.1,56.8 -313.1,85.2 -480.4,85.2 -112.7,0 -229.2,-12.9 -350.5,-38.6 -238.8,-50.6 -415.4,-135.1 -555.6,-266.2 -194,-181 -293.5,-417 -313.3,-742.7 -10.8,-178.4 4.3,-354.7 45.1,-524"
         style="fill:#f3aa85;fill-opacity:1;fill-rule:nonzero;stroke:none"
         id="path1600" />
      <path
         d="m 45172.1,12467.3 c -182.8,0 -366.3,66.4 -538.8,199.3 1,16.1 1.4,32.4 1.4,48.6 v 112.8 c 172.1,-132.2 355.1,-198.3 537.3,-198.3 188.9,0 377,70.9 551.5,212.8 v 0 0 c 18.1,14.8 35.9,30.1 53.3,45.9 V 12726 c -17.4,-15.9 -35.2,-31.2 -53.3,-45.9 -174.4,-141.9 -362.6,-212.8 -551.4,-212.8"
         style="fill:#cc8f70;fill-opacity:1;fill-rule:nonzero;stroke:none"
         id="path1602" />
      <path
         d="m 45172,12629.7 c -182.2,0 -365.2,66.1 -537.3,198.3 v 0 c 172,-132.2 355.1,-198.3 537.4,-198.3 188.8,0 376.9,70.9 551.4,212.8 -174.5,-141.9 -362.6,-212.8 -551.5,-212.8 m 551.5,212.8 c 18.1,14.8 35.9,30.1 53.3,45.9 v 0 0 c -17.4,-15.8 -35.2,-31.1 -53.3,-45.9"
         style="fill:#cc8f70;fill-opacity:1;fill-rule:nonzero;stroke:none"
         id="path1604" />
      <path
         d="m 46757.5,11797.1 v -135.6 h -3096 v 135.6 c 0,201.8 95.2,386.9 251.7,521.2 124.7,107.1 288.2,182 473.5,207.3 43.7,5.9 87.7,8.9 131.7,8.9 h 96.4 c -0.5,-10.2 -0.8,-20.5 -0.8,-30.8 0,-328.9 266.6,-595.4 595.4,-595.4 328.9,0 595.5,266.5 595.5,595.4 0,10.3 -0.3,20.6 -0.8,30.8 h 96.4 c 44.1,0 88,-3 131.7,-8.9 152.1,-20.8 289.7,-75 403.1,-153.1 197.9,-136.1 322.2,-344.9 322.2,-575.4"
         style="fill:#e2e1e0;fill-opacity:1;fill-rule:nonzero;stroke:none"
         id="path1606" />
      <path
         d="m 44195.7,13380.3 c 6.1,-11.6 12.3,-23 18.4,-34.3 -6.2,11.3 -12.3,22.7 -18.4,34.3"
         style="fill:#3a1a03;fill-opacity:1;fill-rule:nonzero;stroke:none"
         id="path1608" />
      <path
         d="m 44634.7,12715.2 v 113 c -5.8,4.5 -11.6,8.8 -17.4,13.4 -154.7,123.5 -279.8,278.3 -400.8,499.8 l 202.4,-1194 c 128.7,144.6 203.7,325.8 214.4,519.2 1,16.1 1.4,32.4 1.4,48.6"
         style="fill:#3a1a03;fill-opacity:1;fill-rule:nonzero;stroke:none"
         id="path1610" />
      <path
         d="m 43511.3,11661.5 h 990 l -284.8,1680 c -31.5,57.7 -62.7,119.8 -94.1,187.2 -35.9,77.2 -76.3,152.1 -115.3,224.5 -28.8,53.5 -58.6,108.9 -85.6,163.3 -26,52.5 -46.9,103.1 -56.7,151.6 -23.1,114.9 -7.5,158.8 98.5,194.6 25.2,8.5 48.1,30 63.1,47.1 12,13.5 17.3,31.7 14.6,49.6 -61.1,404.9 -110.3,1230.4 649.3,1173.1 972.8,-73.4 1516.5,-1248 1516.5,-1248 v 0 c 59.8,-341.4 24.6,-651.8 -110,-941.8 -68.9,-148.6 -162.6,-284.3 -273.9,-404.5 l -46.1,-49.8 -142.1,-1226.9 h 986.3 c -50.4,690.6 -163.6,1507.2 -93.8,2022.1 57.9,427.1 63.1,824.8 48.2,1150 -58.6,1278.4 -1479.8,2028.5 -2558.3,1339.8 -402.2,-256.8 -663.1,-666.7 -581.9,-1191.4 135.1,-873.6 388.2,-2035.4 76.1,-3320.5"
         style="fill:#592800;fill-opacity:1;fill-rule:nonzero;stroke:none"
         id="path1612" />
    </g>
  </g>
</svg>
