<?xml version="1.0" encoding="UTF-8" standalone="no"?>
<!-- Created with Inkscape (http://www.inkscape.org/) -->

<svg
   version="1.1"
   id="svg2"
   width="446.68207"
   height="651.57349"
   viewBox="0 0 446.68207 651.57347"
   xmlns="http://www.w3.org/2000/svg"
   xmlns:svg="http://www.w3.org/2000/svg">
  <defs
     id="defs6" />
  <g
     id="g8"
     transform="matrix(1.3333333,0,0,-1.3333333,-960.0639,980.49333)">
    <g
       id="g10"
       transform="scale(0.1)">
      <path
         d="M 10007.5,2653.3 H 7823 l 265.19,265.2 c 151.09,151.1 239.15,348.4 250.87,560.1 0.94,16.2 1.39,32.6 1.39,48.9 V 3667 c 174.48,-102.8 357.89,-154.5 540.95,-154.5 208.09,0.1 415.67,66.7 608.65,199.6 v -184.6 c 0,-230 89.57,-446.3 252.27,-609 l 265.18,-265.2"
         style="fill:#f3aa85;fill-opacity:1;fill-rule:nonzero;stroke:none"
         id="path3230" />
      <path
         d="m 7736.93,5216.7 c 13.46,-55.9 -17.86,-112.9 -72.3,-131.6 -104.92,-35.8 -127.17,-79.7 -99.14,-195.8 11.67,-48.4 30.87,-99.8 57.05,-152.6 27.17,-54.8 57.15,-110.5 86.17,-164.3 39.23,-72.9 79.88,-148.4 116.08,-226.1 152.85,-328.1 301.83,-534.9 498.1,-691.5 356.9,-284.8 762.71,-284.4 1113.46,0.9 181.02,147.3 326.67,345.1 458.41,622.5 13.22,27.7 26.08,55.7 38.99,83.6 47.18,102.1 95.95,207.6 159.75,308.3 31.3,49.5 58.3,110.5 82.4,186.3 41.5,130.9 25.4,174.1 -90.5,243.9 -38.8,23.3 -59.7,68 -52.7,112.8 30.6,194.7 55.7,404.2 32.6,617.6 -48.2,446.7 -265.03,735.2 -662.86,882.1 -155.09,57.2 -315.14,85.7 -483.55,85.7 -113.44,0 -230.67,-12.9 -352.74,-38.8 -240.4,-50.9 -418.12,-136 -559.34,-267.9 -195.18,-182.3 -295.37,-419.8 -315.31,-747.6 -10.92,-179.5 4.34,-357 45.43,-527.5"
         style="fill:#f3aa85;fill-opacity:1;fill-rule:nonzero;stroke:none"
         id="path3232" />
      <path
         d="m 8881.33,3278 c -183.99,0 -368.69,66.8 -542.27,200.6 0.94,16.2 1.39,32.6 1.39,48.9 V 3641 c 173.16,-133 357.38,-199.5 540.85,-199.5 190.14,-0.1 379.46,71.4 555.05,214.2 v 0 0 c 1.11,0.9 2.21,1.8 3.31,2.7 0.06,0.1 0.12,0.1 0.18,0.1 17.05,14 33.77,28.4 50.21,43.3 v -163.4 c -17.56,-16 -35.45,-31.4 -53.7,-46.2 C 9260.79,3349.4 9071.44,3278 8881.33,3278"
         style="fill:#cc8f70;fill-opacity:1;fill-rule:nonzero;stroke:none"
         id="path3234" />
      <path
         d="m 8881.3,3441.5 c -183.47,0 -367.69,66.5 -540.85,199.5 v 0.1 c 173.16,-133.1 357.39,-199.6 540.86,-199.6 190.13,0 379.45,71.4 555.04,214.2 -175.59,-142.8 -364.91,-214.3 -555.05,-214.2 m 555.05,214.2 c 1.11,0.9 2.21,1.8 3.31,2.7 -1.1,-0.9 -2.2,-1.8 -3.31,-2.7 m 3.49,2.8 c 17.04,14 33.77,28.4 50.21,43.4 v -0.1 0 c -16.44,-14.9 -33.16,-29.3 -50.21,-43.3"
         style="fill:#cc8f70;fill-opacity:1;fill-rule:nonzero;stroke:none"
         id="path3236" />
      <path
         d="M 10477.1,2603.4 V 2466.9 H 7360.79 v 136.5 c 0,203.1 95.9,389.5 253.42,524.7 125.51,107.8 290.12,183.1 476.62,208.6 43.93,5.9 88.21,9 132.54,9 h 97.04 c -0.5,-10.3 -0.8,-20.7 -0.8,-31.1 0,-331 268.33,-599.3 599.33,-599.3 331.01,0 599.34,268.3 599.34,599.3 0,10.4 -0.3,20.8 -0.8,31.1 h 97.09 c 44.33,0 88.56,-3.1 132.49,-9 153.19,-21 291.64,-75.5 405.84,-154.1 199.2,-137.1 324.2,-347.2 324.2,-579.2"
         style="fill:#56402e;fill-opacity:1;fill-rule:nonzero;stroke:none"
         id="path3238" />
      <path
         d="m 7514.38,4928.9 5.41,250.7 211.29,26.6 58.69,-251.9 c 0,0 28.7,136.1 106.26,323 559.16,1409.5 1830.5,1015.9 1830.5,1015.9 0,0 6.55,-0.1 17.56,-4.8 93.18,-33 152.05,-194.5 189.19,-380.1 26.63,-126.7 99.42,-695.2 99.42,-695.2 l 500.9,-53.5 10.7,140.3 c 84.2,1104.7 -687.08,2053.8 -1668.77,2053.8 h -0.01 c -981.69,0 -1752.92,-949.1 -1668.75,-2053.8 l 71.42,-937.3 236.19,566.3"
         style="fill:#1d1d1b;fill-opacity:1;fill-rule:nonzero;stroke:none"
         id="path3240" />
      <path
         d="m 8875.53,7353.7 h -0.01 c -981.69,0 -1752.92,-949.1 -1668.75,-2053.8 L 7428.4,2891.1 c 43.66,89 107.03,169.4 185.81,237 125.51,107.8 290.12,183.1 476.62,208.6 43.93,5.9 88.21,9 132.54,9 h 97.04 c -0.06,-1.2 -0.04,-2.4 -0.09,-3.6 9.73,44.6 16.17,90.2 18.74,136.5 0.94,16.2 1.39,32.6 1.39,48.9 v 113.8 c -5.85,4.5 -11.72,8.9 -17.55,13.5 -196.27,156.6 -345.27,363.4 -498.11,691.5 -36.2,77.7 -76.84,153.2 -116.08,226.1 -29.02,53.8 -58.99,109.5 -86.17,164.3 -26.18,52.8 -45.38,104.2 -57.05,152.6 -28.02,116.1 -5.78,160 99.14,195.8 54.45,18.7 85.76,75.7 72.3,131.6 -41.09,170.5 -56.35,347.9 -45.43,527.5 19.95,327.8 120.13,565.3 315.3,747.6 141.22,131.9 318.94,217 559.35,267.9 122.07,25.9 239.3,38.8 352.74,38.8 168.4,0 328.47,-28.5 483.55,-85.7 397.83,-146.9 614.66,-435.4 662.96,-882.1 23,-213.4 -2.1,-422.9 -32.7,-617.6 -7,-44.8 13.9,-89.5 52.7,-112.8 115.9,-69.8 132,-113 90.5,-243.9 -24.1,-75.8 -51.1,-136.8 -82.4,-186.3 -63.8,-100.7 -112.57,-206.2 -159.74,-308.3 -12.92,-27.9 -25.78,-55.9 -39,-83.6 -118.43,-249.4 -248.21,-434.3 -404.71,-576.1 v -174.6 c 0,-75 9.59,-148.5 28.06,-219.2 0.02,2.1 0.17,4.2 0.17,6.3 0,10.4 -0.3,20.8 -0.8,31.1 h 97.09 c 44.33,0 88.56,-3.1 132.49,-9 153.19,-21 291.64,-75.5 405.84,-154.1 86.6,-59.6 159.2,-133.1 213.6,-216.1 l 177.8,2333.4 c 84.2,1104.7 -687.08,2053.8 -1668.77,2053.8"
         style="fill:#1d1d1b;fill-opacity:1;fill-rule:nonzero;stroke:none"
         id="path3242" />
      <path
         d="m 9865.61,5215.9 c -6.27,-76.9 -26.41,-151.5 -63.39,-221 -42.47,-79.7 -111.16,-128 -202.13,-147.5 -82.95,-17.7 -166.67,-25.5 -250.96,-8.7 -62.56,12.4 -117.39,39.8 -163.84,81.6 -92.01,82.7 -139.06,186 -152.43,304.3 -4.66,41.3 14.46,72.1 48.35,95.7 45.29,31.5 97.82,46.5 151.5,58.3 111.1,24.4 224.23,30.1 333.31,32.1 49.64,-0.8 95.03,1.7 139.93,-5.3 108.36,-16.7 168.15,-85.3 159.66,-189.5 z m -1157.88,6 c -1.59,-12.5 -2.97,-25 -5.28,-37.4 -17.52,-93.6 -58.64,-177.2 -126.9,-246.5 -64.13,-65 -144.98,-101.9 -239.4,-107.1 -68.3,-3.8 -136.2,1.8 -202.74,17.9 -100.88,24.4 -169.63,83.7 -209.11,174.7 -25.37,58.5 -41.07,119.6 -48.52,182.1 -7.11,59.7 6.46,114.8 55.6,157.2 33.82,29.2 75.55,40.7 119.9,44.8 39.54,3.7 79.25,2.8 131.34,2.9 106.2,-1.8 224.39,-8 340.15,-35.2 48.51,-11.4 95.75,-26.4 136.73,-54.9 34.98,-24.4 53.61,-56.2 48.23,-98.5 z m 1342.47,205.3 c -13.4,4.3 -26.8,9.1 -40.6,12.1 -97.52,21 -196.92,27.6 -296.28,31.7 -110.78,4.6 -221.67,2.2 -332.2,-8.1 -92.23,-8.6 -183.74,-21 -271.98,-49.3 -47,-15.1 -92.32,-33.7 -127.98,-67.9 -9.14,-8.8 -19.13,-13.7 -31.31,-16.3 -43.7,-9.1 -87.69,-10.2 -131.96,-4.8 -26.05,3.2 -50.38,8.7 -68.57,29.8 -8.09,9.4 -20.48,15.8 -31.76,22.2 -62.93,35.9 -132.84,52.8 -203.91,65.8 -112.73,20.6 -226.78,28.3 -361.62,30.2 -98.33,2.6 -216.33,-4.4 -333.88,-18.6 -42.33,-5.1 -84.71,-10.9 -124.82,-25.8 -27.24,-10 -36.02,-23.2 -35.78,-51 0.27,-30.3 14.34,-55.9 31.22,-80.4 1.7,-2.5 3.89,-4.3 7.22,-4.8 21.89,-3.4 35.44,-18 47.84,-33.5 23.1,-28.8 36.94,-62.1 49.11,-96 17.69,-49.4 27.85,-100.9 48.11,-149.6 45.85,-110.2 124.43,-186.4 246.3,-219.2 74.58,-20.1 150.91,-26.1 227.93,-25.8 132.12,0.3 242.3,48.4 330.29,141.4 79.68,84.2 126.07,184 145.63,295.2 2.36,13.4 6.97,19.4 22.18,20.9 38.15,3.9 75.99,4.2 114.11,-0.1 13.64,-1.5 19.73,-5.5 21.98,-19.5 13.76,-85.3 45.87,-164.2 96.28,-235.9 73.62,-104.8 172.28,-176.7 305.52,-195.9 106.33,-15.3 212.2,-5.9 315.28,23.9 90.77,26.2 159.14,79.7 205.09,158.9 28.73,49.5 46.61,102.7 61.12,157.2 12.14,45.5 27.39,90.1 53.98,130.2 14.36,21.7 29.96,43 59.66,48.3 2.1,0.3 4.3,2.5 5.6,4.4 17.8,25.8 32.5,52.7 31.2,84.7 -0.9,21.7 -9.9,38.4 -33,45.6"
         style="fill:#000000;fill-opacity:1;fill-rule:nonzero;stroke:none"
         id="path3244" />
      <path
         d="m 7514.38,4928.9 5.41,250.7 211.29,26.6 58.69,-251.9 c 0,0 28.7,136.1 106.26,323 559.16,1409.5 1830.5,1015.9 1830.5,1015.9 0,0 6.55,-0.1 17.56,-4.8 93.18,-33 152.05,-194.5 189.19,-380.1 26.63,-126.7 99.42,-695.2 99.42,-695.2 l 500.9,-53.5 10.7,140.3 c 84.2,1104.7 -687.08,2053.8 -1668.77,2053.8 h -0.01 c -981.69,0 -1752.92,-949.1 -1668.75,-2053.8 l 71.42,-937.3 236.19,566.3"
         style="fill:#1d1d1b;fill-opacity:1;fill-rule:nonzero;stroke:none"
         id="path3246" />
    </g>
  </g>
</svg>
