<?xml version="1.0" encoding="UTF-8" standalone="no"?>
<!-- Created with Inkscape (http://www.inkscape.org/) -->

<svg
   version="1.1"
   id="svg2"
   width="586.67993"
   height="761.7085"
   viewBox="0 0 586.67993 761.70848"
   xmlns="http://www.w3.org/2000/svg"
   xmlns:svg="http://www.w3.org/2000/svg">
  <defs
     id="defs6" />
  <g
     id="g8"
     transform="matrix(1.3333333,0,0,-1.3333333,-3304.2932,1090.6283)">
    <g
       id="g10"
       transform="scale(0.1)">
      <path
         d="m 29182.3,2466.9 h -4400.1 v 578.6 c 0,294 266.8,545.6 633.2,597.2 1036.4,145.9 2097.3,145.9 3133.6,0 v 0 c 366.4,-51.6 633.3,-303.2 633.3,-597.2 v -578.6"
         style="fill:#1d1d1b;fill-opacity:1;fill-rule:nonzero;stroke:none"
         id="path3216" />
      <path
         d="m 28501,6157 c -53.4,307.2 -205.2,197.1 -205.2,197.1 l 1.6,39.2 c 30.4,753.9 -561.3,1387 -1315.2,1407.9 -753.9,-20.9 -1345.6,-654 -1315.2,-1407.9 l 1.6,-39.2 c 0,0 -151.8,110.1 -205.2,-197.1 -37.4,-215.3 60.5,-337.1 165.1,-454.7 81.2,-91.2 144.4,-197.5 181.9,-313.7 129,-399.2 354.4,-659 504,-796.9 84.2,-77.6 194.7,-120.2 309.3,-120.2 h 358.5 358.6 c 114.5,0 225.1,42.6 309.3,120.2 149.5,137.9 375,397.7 503.9,796.9 37.5,116.2 100.8,222.5 181.9,313.7 104.6,117.6 202.5,239.4 165.1,454.7"
         style="fill:#f3aa85;fill-opacity:1;fill-rule:nonzero;stroke:none"
         id="path3218" />
      <path
         d="m 28091,3697 c -346.1,-186.5 -727.4,-279.7 -1108.8,-279.7 -381.3,0 -762.7,93.2 -1108.7,279.7 l 269.1,269.2 c 81.1,81.1 144.3,175.4 187.6,277.9 20,47.4 35.9,96.7 47.2,147.2 0.6,2.6 1.1,5.1 1.6,7.6 9.1,42 15.1,84.9 17.9,128.4 0.1,1.3 0.2,2.7 0.3,4 68.4,-38.9 146.4,-59.9 226.5,-59.9 h 717 c 80.1,0 158.1,21 226.6,59.9 l 0.1,-0.1 c 0.1,-2.6 0.2,-5.1 0.5,-7.7 2.8,-43.3 9,-86.2 18.3,-128.1 0.1,-1.4 0.5,-2.7 0.8,-4.1 11.4,-50.5 27.2,-99.8 47.2,-147.2 43.3,-102.5 106.4,-196.8 187.6,-277.9 L 28091,3697"
         style="fill:#f3aa85;fill-opacity:1;fill-rule:nonzero;stroke:none"
         id="path3220" />
      <path
         d="m 27248.6,4532 c -66.5,-34.9 -112.5,-10.1 -147.7,40.4 -57.6,82.3 -179.5,79.5 -239.4,-1.2 -31.4,-42.3 -72.2,-65.4 -129.4,-47.2 -204.9,78.2 -371,215.9 -510.6,394.3 -175.3,223.2 -298.6,479.1 -384.3,751.3 -32.6,103.8 2.8,208.6 11.3,317.1 23.5,298.3 19.2,520.8 72,1087.3 5.7,60.5 58,105.8 118.6,102.9 l 1435.8,-70.8 c 204.6,-21.7 586,-47.3 644.8,-246.1 0,0 -59.8,-586.9 23.5,-814.2 34,-92.7 35.8,-194.3 9.2,-289.4 C 28005,5228 27728.3,4740.6 27248.6,4532 m 1098.2,2717.7 c -39.7,559.8 -1352.3,1404.8 -2377.6,596.6 -228.3,-179.9 -354.3,-461.6 -338.9,-753.3 l 46.8,-884.2 c -13.5,-779.4 365.3,-1649 1073.2,-1855.7 91.6,-26.8 187.3,-37.7 282.5,-30.8 822.9,60.1 1297,1106.1 1252,1957.7 44.8,286.7 84.4,653.7 62,969.7"
         style="fill:#543821;fill-opacity:1;fill-rule:nonzero;stroke:none"
         id="path3222" />
      <path
         d="m 28284.8,6280 c 2.1,-40.5 3.1,-81.4 2.9,-122.6 38,247.3 71.3,550.6 64.7,829.1 -5,-244.2 -34.8,-496.8 -67.6,-706.5"
         style="fill:#543821;fill-opacity:1;fill-rule:nonzero;stroke:none"
         id="path3224" />
      <path
         d="m 26976.6,4178.7 c -76.5,0 -152.7,11.3 -226.3,32.8 -136.1,39.7 -260,104 -371.3,187.4 9.1,42 15.1,84.9 17.9,128.4 106.6,-77 224.6,-136.6 353.4,-174.2 37.4,-11 75.5,-19.3 114,-24.8 0.1,0 0.3,0 0.4,0 0.4,-0.1 0.9,-0.2 1.3,-0.2 36.7,-5.2 73.8,-7.9 110.9,-7.9 18.6,0 37.3,0.7 55.9,2.1 124.6,9.1 241.1,40.8 349.1,91 v 0 c 0.6,0.2 1.1,0.5 1.7,0.8 0.2,0.1 0.5,0.2 0.7,0.3 0.3,0.2 0.7,0.3 1,0.5 0.4,0.1 0.8,0.3 1.2,0.5 0.2,0.1 0.3,0.2 0.5,0.3 63.3,29.8 123.6,66 180.9,107.7 2.8,-43.2 9,-86.1 18.3,-128 -160.5,-121.6 -345.8,-199.6 -553.4,-214.6 -18.8,-1.4 -37.5,-2.1 -56.2,-2.1"
         style="fill:#cc8f70;fill-opacity:1;fill-rule:nonzero;stroke:none"
         id="path3226" />
      <path
         d="m 26866,4328.1 c -0.4,0 -0.9,0.1 -1.3,0.2 0.4,-0.1 0.9,-0.2 1.3,-0.2 m -1.7,0.2 c -38.5,5.5 -76.6,13.8 -114,24.8 -128.8,37.6 -246.8,97.2 -353.4,174.2 v 0 c 106.7,-77 224.5,-136.6 353.4,-174.2 37.4,-11 75.5,-19.3 114,-24.8 m 517.6,85 v 0 0 m 1.7,0.8 c 0.2,0.1 0.5,0.2 0.7,0.3 -0.2,-0.1 -0.5,-0.2 -0.7,-0.3 m 1.7,0.8 c 0.4,0.2 0.8,0.3 1.2,0.5 -0.4,-0.2 -0.8,-0.4 -1.2,-0.5 m 1.7,0.8 c 63.3,29.8 123.6,66 180.9,107.8 v -0.1 c -57.3,-41.7 -117.6,-77.9 -180.9,-107.7"
         style="fill:#462f1c;fill-opacity:1;fill-rule:nonzero;stroke:none"
         id="path3228" />
    </g>
  </g>
</svg>
