<?xml version="1.0" encoding="UTF-8" standalone="no"?>
<!-- Created with Inkscape (http://www.inkscape.org/) -->

<svg
   version="1.1"
   id="svg2"
   width="429.4292"
   height="636.43994"
   viewBox="0 0 429.4292 636.43993"
   xmlns="http://www.w3.org/2000/svg"
   xmlns:svg="http://www.w3.org/2000/svg">
  <defs
     id="defs6" />
  <g
     id="g8"
     transform="matrix(1.3333333,0,0,-1.3333333,-2578.1743,2191.3066)">
    <g
       id="g10"
       transform="scale(0.1)">
      <path
         d="m 22061.2,11851.1 h -2222.4 l 269.8,269.9 c 153.7,153.7 243.3,354.4 255.2,569.8 1,16.5 1.4,33.1 1.4,49.8 v 141.8 c 177.5,-104.6 364.1,-157.1 550.4,-157.1 211.7,0 422.9,67.8 619.2,203 v -187.7 c 0,-234.1 91.1,-454.2 256.6,-619.6 l 269.8,-269.9"
         style="fill:#f3aa85;fill-opacity:1;fill-rule:nonzero;stroke:none"
         id="path72" />
      <path
         d="m 19751.2,14459.1 c 13.7,-56.9 -18.2,-114.9 -73.5,-133.9 -106.8,-36.5 -129.4,-81.2 -100.9,-199.2 11.9,-49.3 31.4,-101.5 58,-155.2 27.7,-55.8 58.2,-112.5 87.7,-167.3 39.9,-74.1 81.3,-150.9 118.1,-229.9 155.5,-333.8 307.1,-544.3 506.7,-703.6 363.1,-289.7 776,-289.4 1132.8,0.9 184.2,149.9 332.4,351.1 466.4,633.3 13.5,28.3 26.5,56.7 39.7,85.1 48,103.8 97.7,211.2 162.5,313.6 31.9,50.5 59.3,112.4 83.8,189.6 42.2,133.1 25.9,177.2 -92,248.1 -39.6,23.8 -60.8,69.2 -53.6,114.8 31.1,198 56.7,411.2 33.2,628.4 -49.1,454.4 -269.7,747.9 -674.4,897.3 -157.8,58.2 -320.7,87.3 -492,87.3 -115.4,0 -234.7,-13.2 -358.9,-39.5 -244.6,-51.8 -425.4,-138.4 -569,-272.6 -198.6,-185.4 -300.5,-427.1 -320.8,-760.6 -11.1,-182.7 4.4,-363.2 46.2,-536.6"
         style="fill:#f3aa85;fill-opacity:1;fill-rule:nonzero;stroke:none"
         id="path74" />
      <path
         d="m 20915.5,12486.6 c -187.2,0 -375.1,68.1 -551.7,204.2 1,16.5 1.4,33.1 1.4,49.8 v 115.4 c 176.2,-135.3 363.6,-203 550.3,-203 193.4,0 386,72.6 564.6,217.9 v 0 0 c 18.6,15.1 36.8,30.8 54.7,47 v -166.3 c -17.9,-16.3 -36.1,-31.9 -54.7,-47 -178.6,-145.3 -371.2,-218 -564.6,-218"
         style="fill:#cc8f70;fill-opacity:1;fill-rule:nonzero;stroke:none"
         id="path76" />
      <path
         d="m 20915.5,12653 c -186.7,0 -374.1,67.7 -550.3,203 v 0.1 c 176.2,-135.4 363.6,-203.1 550.3,-203.1 193.4,0 386,72.6 564.6,217.9 -178.6,-145.3 -371.2,-217.9 -564.6,-217.9 m 564.6,217.9 c 18.6,15.2 36.8,30.8 54.7,47 v 0 0 c -17.9,-16.2 -36.1,-31.9 -54.7,-47"
         style="fill:#cc8f70;fill-opacity:1;fill-rule:nonzero;stroke:none"
         id="path78" />
      <path
         d="m 22539,11800.4 v -138.9 h -3170.5 v 138.9 c 0,206.6 97.6,396.2 257.9,533.7 127.6,109.7 295.1,186.3 484.8,212.3 44.7,6 89.8,9.1 134.9,9.1 h 98.7 c -0.5,-10.5 -0.8,-21 -0.8,-31.6 0,-336.7 273,-609.7 609.8,-609.7 336.7,0 609.7,273 609.7,609.7 0,10.6 -0.3,21.1 -0.8,31.6 h 98.8 c 45.1,0 90.1,-3.1 134.8,-9.1 155.8,-21.4 296.7,-76.9 412.8,-156.8 202.7,-139.4 329.9,-353.2 329.9,-589.2"
         style="fill:#07618e;fill-opacity:1;fill-rule:nonzero;stroke:none"
         id="path80" />
      <path
         d="m 22491.5,13134.1 c -411.6,638.3 -133.2,491.1 -91.3,1247 9.7,174 13.3,378.3 3.6,626.1 -1.4,35.6 -3.9,70.4 -7.4,104.4 -3.5,33.9 -8,67 -13.4,99.2 -3.6,21.5 -7.6,42.6 -12,63.3 -228.5,1070.7 -1526.9,1160.7 -1526.9,1160.7 0,0 -1713.5,-174.2 -1487.2,-1758.5 114.7,-803 383,-1093.9 21.5,-1563.1 -126.6,-164.4 94.4,-508.7 291,-442.2 229.3,77.5 404.1,-65 639,-115.5 h 37.1 v 0.1 c 2.3,10.4 4.3,21 6.2,31.5 0.2,1.5 0.5,3 0.7,4.6 1.7,9.3 3.1,18.8 4.4,28.2 0.6,4.3 1.1,8.6 1.6,12.9 0.9,7.2 1.8,14.3 2.5,21.5 1.2,12.1 2.2,24.3 2.9,36.5 1,16.5 1.4,33.1 1.4,49.8 v 115.7 c -5.9,4.6 -11.9,9 -17.8,13.7 -190.8,152.2 -337.7,351.2 -486,659.7 h 2.2 c -6.9,14.4 -13.9,29 -20.8,43.9 -36.8,79 -78.2,155.8 -118.1,229.9 -29.5,54.8 -60,111.5 -87.7,167.3 -26.6,53.7 -46.1,105.9 -58,155.2 -28.5,118 -5.9,162.7 100.9,199.2 55.4,19 87.2,77 73.5,133.9 -41.8,173.4 -57.3,354 -46.2,536.6 l 0.1,2 c 8.9,142.7 99.5,267.8 231.9,321.7 273.1,111.2 731.4,104.6 1453.2,-411 440.4,-314.6 566.2,-545.2 806.9,-606.2 65.4,-52.5 69.6,-101.9 35.4,-209.8 -24.5,-77.1 -51.9,-139 -83.8,-189.5 -64.8,-102.4 -114.5,-209.8 -162.5,-313.6 -13.1,-28.4 -26.2,-56.8 -39.7,-85.1 -15.3,-32.3 -31.6,-63.2 -48.6,-92.8 -108,-207.5 -226.2,-367.2 -365.3,-493.3 v -177.5 c 0,-10.2 0.2,-20.3 0.6,-30.4 v -1.9 0 c 1.5,-42.3 6.1,-84 13.4,-125 l 0.2,-1.1 c 1.4,-7.5 2.9,-15 4.4,-22.5 0.2,-0.9 0.4,-1.9 0.6,-2.9 1.5,-7 3.1,-14.1 4.8,-21.1 l 0.6,-2.8 c 1.9,-7.6 3.9,-15.3 5.9,-23 v -0.1 c 0.2,4.7 0.4,9.4 0.4,14.1 0,10.6 -0.3,21.1 -0.8,31.6 h 98.8 c 34.5,0 69,-1.8 103.4,-5.4 457.9,106.6 975,195.3 724.4,584"
         style="fill:#873904;fill-opacity:1;fill-rule:nonzero;stroke:none"
         id="path82" />
    </g>
  </g>
</svg>
