<?xml version="1.0" encoding="UTF-8" standalone="no"?>
<!-- Created with Inkscape (http://www.inkscape.org/) -->

<svg
   version="1.1"
   id="svg2"
   width="586.69324"
   height="772.64551"
   viewBox="0 0 586.69324 772.64549"
   xmlns="http://www.w3.org/2000/svg"
   xmlns:svg="http://www.w3.org/2000/svg">
  <defs
     id="defs6" />
  <g
     id="g8"
     transform="matrix(1.3333333,0,0,-1.3333333,-1694.7999,2327.5122)">
    <g
       id="g10"
       transform="scale(0.1)">
      <path
         d="M 17111.2,11661.5 H 12711 v 578.6 c 0,294 266.9,545.6 633.3,597.2 v 0 c 1036.4,145.9 2097.2,145.9 3133.6,0 v 0 c 366.4,-51.6 633.3,-303.2 633.3,-597.2 v -578.6"
         style="fill:#95b887;fill-opacity:1;fill-rule:nonzero;stroke:none"
         id="path1628" />
      <path
         d="m 16429.9,15351.6 c -53.4,307.2 -205.2,197.1 -205.2,197.1 l 1.6,39.2 c 30.4,753.9 -561.3,1387 -1315.2,1407.9 -753.9,-20.9 -1345.6,-654 -1315.2,-1407.9 l 1.6,-39.2 c 0,0 -151.8,110.1 -205.2,-197.1 -37.4,-215.3 60.5,-337.2 165.1,-454.7 81.1,-91.3 144.4,-197.5 181.9,-313.7 129,-399.3 354.4,-659.1 503.9,-796.9 84.3,-77.6 194.8,-120.3 309.3,-120.3 h 358.6 358.6 c 114.5,0 225,42.7 309.3,120.3 149.5,137.8 374.9,397.6 503.9,796.9 37.5,116.2 100.7,222.4 181.9,313.7 104.6,117.5 202.5,239.4 165.1,454.7"
         style="fill:#f3aa85;fill-opacity:1;fill-rule:nonzero;stroke:none"
         id="path1630" />
      <path
         d="m 15515.9,13585.9 c -10.3,45.7 -16.9,92.5 -19.7,139.9 v 0.1 c -68.5,-39 -146.5,-59.9 -226.5,-59.9 h -358.6 -358.6 c -80,0 -158,20.9 -226.5,59.9 v 0 c -2.8,-47.5 -9.5,-94.3 -19.7,-140 -35.8,-159.7 -116.2,-306.5 -234.8,-425 l -269.2,-269.3 c 692.1,-373 1525.4,-373 2217.5,0 l -269.2,269.3 c -118.6,118.5 -198.9,265.3 -234.7,425"
         style="fill:#f3aa85;fill-opacity:1;fill-rule:nonzero;stroke:none"
         id="path1632" />
      <path
         d="m 15269.7,13514.2 h -717.2 c -87.8,0 -173.2,25 -246.2,71.7 10.2,45.7 16.9,92.5 19.7,140 68.5,-39.1 146.5,-59.9 226.5,-59.9 h 717.2 c 80,0 158,20.8 226.5,59.8 2.8,-47.4 9.4,-94.2 19.7,-139.9 -73.1,-46.7 -158.5,-71.7 -246.2,-71.7"
         style="fill:#cc8f70;fill-opacity:1;fill-rule:nonzero;stroke:none"
         id="path1634" />
      <path
         d="m 13672.3,15250.3 c 13.3,-45.2 77.8,-44 89.7,1.6 53.6,206.2 137.8,567 128.8,766 -13.2,289.7 627.1,53.1 881.9,115.3 273.7,66.8 411.3,97.3 771.8,182.8 202.3,48 398.2,-100.1 407,-307.8 8.6,-203.1 17,-470.5 19,-774.2 0.3,-46 60.3,-63.9 85.4,-25.3 138.6,212.8 386.9,736.2 270.5,1638.7 -158,1224.4 -2211.8,223.8 -2211.8,223.8 0,0 -1027.2,162.8 -442.3,-1820.9"
         style="fill:#3c1a00;fill-opacity:1;fill-rule:nonzero;stroke:none"
         id="path1636" />
      <path
         d="m 14834.9,12837.1 85.5,-248.1 h -302.6 z"
         style="fill:#778c6c;fill-opacity:1;fill-rule:nonzero;stroke:none"
         id="path1638" />
      <path
         d="m 13908.8,13235.8 926.1,-398.7 -540.2,-617.5 -643.2,643.2 257.3,373"
         style="fill:#809974;fill-opacity:1;fill-rule:nonzero;stroke:none"
         id="path1640" />
      <path
         d="m 14987.3,12837.1 -85.5,-248.1 h 302.5 z"
         style="fill:#778c6c;fill-opacity:1;fill-rule:nonzero;stroke:none"
         id="path1642" />
      <path
         d="m 15913.4,13235.8 -926.1,-398.7 540.2,-617.5 643.2,643.2 -257.3,373"
         style="fill:#809974;fill-opacity:1;fill-rule:nonzero;stroke:none"
         id="path1644" />
      <path
         d="m 15684,13235.6 15.9,-19.4 c 15.1,-17.8 30.8,-35.1 47.4,-51.9 l 166.1,71.5 h -229.6 l 0.2,-0.2"
         style="fill:#778c6c;fill-opacity:1;fill-rule:nonzero;stroke:none"
         id="path1646" />
      <path
         d="m 14129.5,13224.9 6.7,8.1 c 0.7,0.9 1.4,1.9 2.2,2.8 h -229.6 l 166.1,-71.5 c 19.2,19.5 37.4,39.7 54.6,60.6"
         style="fill:#778c6c;fill-opacity:1;fill-rule:nonzero;stroke:none"
         id="path1648" />
      <path
         d="m 14838.2,12467 c 0,40.3 32.6,72.9 72.9,72.9 40.3,0 72.9,-32.6 72.9,-72.9 0,-40.3 -32.6,-72.9 -72.9,-72.9 -40.3,0 -72.9,32.6 -72.9,72.9"
         style="fill:#778c6c;fill-opacity:1;fill-rule:nonzero;stroke:none"
         id="path1650" />
      <path
         d="m 14838.2,12199.4 c 0,40.3 32.6,73 72.9,73 40.3,0 72.9,-32.7 72.9,-73 0,-40.3 -32.6,-72.9 -72.9,-72.9 -40.3,0 -72.9,32.6 -72.9,72.9"
         style="fill:#778c6c;fill-opacity:1;fill-rule:nonzero;stroke:none"
         id="path1652" />
      <path
         d="M 15014.9,12045.6 H 14790 v 37.2 h 224.9 c 3,0 5.4,2.5 5.4,5.5 v 500.7 h 37.3 v -500.7 c 0,-23.6 -19.2,-42.7 -42.7,-42.7"
         style="fill:#809974;fill-opacity:1;fill-rule:nonzero;stroke:none"
         id="path1654" />
    </g>
  </g>
</svg>
